<?xml version="1.0" encoding="UTF-8"?>
<!DOCTYPE svg PUBLIC "-//W3C//DTD SVG 1.1//EN" "http://www.w3.org/Graphics/SVG/1.1/DTD/svg11.dtd">
<!-- Creator: CorelDRAW -->
<svg xmlns="http://www.w3.org/2000/svg" xml:space="preserve" width="100%" height="100%" version="1.1" style="shape-rendering:geometricPrecision; text-rendering:geometricPrecision; image-rendering:optimizeQuality; fill-rule:evenodd; clip-rule:evenodd"
viewBox="0 0 11906.24 9989.11"
 xmlns:xlink="http://www.w3.org/1999/xlink"
 xmlns:xodm="http://www.corel.com/coreldraw/odm/2003">
 <defs>
  <style type="text/css">
   <![CDATA[
    .fil6 {fill:#00ACD3}
    .fil7 {fill:#20C2EF}
    .fil0 {fill:#394D54}
    .fil8 {fill:#D4EDF1}
    .fil3 {fill:#008BB8;fill-rule:nonzero}
    .fil1 {fill:#00AADA;fill-rule:nonzero}
    .fil4 {fill:#039BC6;fill-rule:nonzero}
    .fil2 {fill:#24B8EB;fill-rule:nonzero}
    .fil5 {fill:#394D54;fill-rule:nonzero}
    .fil9 {fill:#BFDBE0;fill-rule:nonzero}
    .fil10 {fill:#D4EDF1;fill-rule:nonzero}
   ]]>
  </style>
 </defs>
 <g id="Слой_x0020_1">
  <metadata id="CorelCorpID_0Corel-Layer"/>
  <g id="_105553286563872">
   <g>
    <path id="docker" class="fil0" d="M8815.38 9360.4c267.81,-229.63 535.68,-459.4 802.69,-689.93 91.23,-78.71 191.35,-160.39 281.89,-243.15 -72.68,-91.52 -194.02,-157.53 -297.13,-196.88 -208.09,-79.3 -413.36,-52.65 -604.2,57.52 -249.87,144.22 -356.26,373.99 -346.92,659.87 3.65,112.58 33.95,221.06 93.72,316.87 21.06,33.76 44.58,65.45 69.95,95.7l0 0zm309.91 217.64c131.31,45.83 281.07,39.32 415.79,15.82 68.87,-29.26 245.11,-106.15 309.93,-94.88l10.13 1.69 9.31 4.58c39.56,19.18 77.36,46.33 97.53,86.57 47.25,94.46 24.55,189.34 -68.18,242.91l-30.88 17.83c-342.29,197.56 -706.36,170.21 -1047.51,-14.31 -163.14,-88.16 -287.92,-219.1 -379.99,-378.67l-21.54 -37.31c-219.74,-380.52 -190.08,-780.84 57.73,-1142.68 85.59,-125.1 197.38,-221.72 328.11,-297.29l49.45 -28.55c322.37,-186.08 667.81,-173.36 998.91,-10.03 177.99,87.82 322.21,218.76 421.59,390.9l17.89 30.98c72.18,125.1 -21.33,234.1 -117.87,308.58 -112.02,86.47 -225.13,190.45 -332.55,283.16 -239.48,206.66 -478.54,413.83 -717.85,620.7zm2564.68 -1731.17l35.8 0c108.24,0 180.47,72.92 180.47,180.53 0,149.38 -142.82,187.64 -266.38,187.64 -162.06,0 -316.76,98.11 -428.47,208.15 -139.3,137.32 -200.29,313.21 -200.29,506.54l0 873.57c0,100.14 -62.49,180.53 -166.24,180.53l-28.43 0c-103.72,0 -166.18,-80.38 -166.18,-180.53l0 -923.69c0,-354.7 172.67,-644.23 460.51,-847.33 171.89,-121.35 368.74,-185.41 579.21,-185.41zm-4497.33 619.95c140.15,-140.34 280.8,-280.43 423.04,-418.47 39.66,-38.47 189.73,-201.45 248.81,-201.45l64.64 0 7.36 1.51c82.31,17.09 143.99,69.22 143.99,157.67l0 35.69c0,60.35 -70.67,130.44 -109.64,171.74 -82.89,87.87 -170.18,172.88 -255.06,258.95l-435.9 442.54c187.67,188.12 375.21,376.42 561.39,566.02 51.49,52.41 103.03,104.93 153.72,158.12 17.94,18.86 44.37,42.33 59.43,68.47 16.11,24.45 26.06,52.07 26.06,81.54l0 37.31 -2.09 8.57c-20.27,82.31 -72.52,148.78 -163.78,148.78l-28.68 0c-59.72,0 -127.13,-67.55 -168.06,-106.15 -84.22,-79.45 -165.6,-162.98 -248.23,-244.13l-277.02 -271.94 0 434.63c0,100.09 -62.68,180.58 -166.18,180.58l-28.45 0c-103.61,0 -166.21,-80.46 -166.21,-180.58l0 -2449.25c0,-100.14 62.65,-180.23 166.21,-180.23l28.44 0c103.51,0 166.18,80.09 166.18,180.23l0 1119.85 0.03 0zm-1170.41 -244.34c-54.45,-25.53 -156.45,-34 -215.34,-36.25 -301.46,-11.35 -519.58,158.41 -647.56,424.37 -44.19,91.73 -64.35,188.86 -64.35,290.35 0,309.06 162.24,525.44 438.15,657.36 100.77,48.18 230.87,57.34 341.01,57.34 96.89,0 233.76,-59.37 319.72,-100.2l14.9 -7.06 66.68 -0.01 7.36 1.51c82.07,17.04 144.04,69.08 144.04,157.37l0 35.69c0,219.68 -401.53,270.01 -554.73,280.67 -540.64,37.47 -944.98,-259.48 -1099.15,-775.18 -26.8,-89.54 -38.81,-178.49 -38.81,-271.81l0 -71.41c0,-391.29 194.15,-701.23 529.78,-900.62 156.08,-92.68 328.63,-139.22 509.95,-139.22l71.5 0.01c192.3,0 369.46,54.61 528.27,163.09l13.04 9.02 8.23 13.6c17.15,28.44 31.91,61.28 31.91,95.14l0 35.69c0,92.1 -68.92,141.66 -152.11,157.67l-6.88 1.22 -21.32 0c-53.85,0.05 -176.19,-55.72 -224.29,-78.34zm-3290.27 685.8c0,274.29 134.65,476.04 366.29,617.88 108.77,66.62 228.55,96.78 355.68,96.78 271.01,0 471.33,-137.42 610.76,-366.16 66.49,-109.06 96.55,-228.84 96.55,-355.84 0,-255.06 -122.85,-449.9 -332.85,-591.11 -115.09,-77.44 -243.21,-116.23 -381.79,-116.23 -302.29,0 -519.83,152.72 -650.37,424.02 -44.14,91.77 -64.27,189.19 -64.27,290.66zm678.97 -1075.72l50.04 0c418.07,0 736.02,202.83 937.52,567.77 80.57,146 123.67,305.33 123.67,472.25l0 71.52c0,391.13 -192.88,702.84 -530.17,900.75 -156.16,91.57 -328.64,138.96 -509.61,138.96l-71.47 0c-391.24,0 -702.15,-193.44 -900.69,-529.96 -92.15,-156.26 -139.07,-328.56 -139.07,-509.75l0 -71.52c0,-391.35 194.1,-701.38 529.78,-900.91 156.07,-92.73 328.66,-139.11 510,-139.11zm-3041.94 1075.72c0,282.58 136.97,494.98 384.57,630.45 100.09,54.8 208.81,84.22 323.06,84.22 277.36,0 483.05,-130.84 624.95,-365.87 65.99,-109.35 96.73,-228.94 96.73,-356.13 0,-244.98 -115.97,-436.11 -313.35,-578.09 -119.67,-86.07 -254.42,-129.22 -401.32,-129.22 -302.29,0 -519.83,152.72 -650.43,424.02 -44.1,91.73 -64.21,189.15 -64.21,290.62zm1429.31 -806.35l0 -761.97c0,-100.04 62.6,-180.53 166.21,-180.53l28.73 0c103.61,0 165.89,80.51 165.89,180.53l0 1604.12c0,391.19 -193.28,702.42 -530.01,900.69 -156.16,91.86 -328.69,139.01 -509.69,139.01l-71.57 0c-391.24,0 -702.1,-193.44 -900.69,-529.96 -92.15,-156.26 -138.96,-328.56 -138.96,-509.75l0 -71.52c0,-391.29 193.38,-702.36 529.88,-900.99 156.26,-92.26 328.56,-139.01 509.8,-139.01l71.57 0.01c264.74,0 489.4,102.63 678.84,269.37z"/>
   </g>
   <path id="outline" class="fil0" d="M6868.05 2129.61l1064.81 0 0 1088.5 538.41 -0.01c248.63,0 504.35,-44.29 739.8,-124.09 115.68,-39.21 245.56,-93.82 359.67,-162.48 -150.31,-196.24 -227.04,-444.05 -249.63,-688.29 -30.69,-332.24 36.33,-764.65 261.2,-1024.68l111.95 -129.46 133.38 107.21c335.81,269.8 618.23,646.8 668.02,1076.54 404.34,-118.93 879.08,-90.81 1235.5,114.91l146.24 84.38 -76.97 150.23c-301.41,588.27 -931.6,770.49 -1547.68,738.24 -921.89,2296.15 -2928.94,3383.22 -5362.51,3383.22 -1257.27,0 -2410.78,-470.01 -3067.63,-1585.45l-10.77 -18.23 -95.73 -194.71c-222.01,-490.99 -295.78,-1028.91 -245.75,-1566.36l15 -161 910.53 0 0 -1088.5 1064.76 0 0 -1064.82 2129.66 0.01 0 -1064.77 1277.77 0 0 2129.61 -0.03 0z"/>
   <g id="body_colors">
    <path class="fil1" d="M10317.85 2532.3c71.41,-554.86 -343.85,-990.71 -601.37,-1197.64 -296.73,343.11 -342.87,1242.3 122.71,1620.89 -259.82,230.8 -807.32,440 -1367.92,440l-6824.18 0.01c-54.5,585.21 48.23,1124.08 282.87,1585.38l77.66 142c49.16,83.42 102.84,163.94 160.89,241.43 0.03,0 0.03,0 0.03,0 280.54,18.02 539.22,24.26 775.86,19.02 0.03,0 0.08,0 0.13,0 465.06,-10.29 844.52,-65.17 1132.13,-164.84 42.81,-14.87 89.48,7.83 104.3,50.61 14.82,42.76 -7.83,89.46 -50.61,104.3 -38.23,13.26 -78.13,25.64 -119.3,37.41 -0.05,0.03 -0.11,0.03 -0.13,0.05 -226.46,64.64 -469.27,108.16 -782.58,127.5 18.55,0.29 -19.39,2.78 -19.47,2.8 -10.64,0.66 -24.05,2.17 -34.77,2.78 -123.3,6.91 -256.38,8.36 -392.46,8.36 -148.8,0 -295.41,-2.83 -459.24,-11.14l-4.18 2.78c568.59,639.06 1457.64,1022.37 2572.04,1022.37 2358.54,0 4359.08,-1045.52 5244.9,-3392.77 628.52,64.48 1232.51,-95.75 1507.28,-632.12 -437.71,-252.57 -1000.51,-172.05 -1324.59,-9.18z"/>
    <path class="fil2" d="M10317.85 2532.3c71.41,-554.86 -343.85,-990.71 -601.37,-1197.64 -296.73,343.11 -342.87,1242.3 122.71,1620.89 -259.82,230.8 -807.32,440 -1367.92,440l-6420.08 0.01c-27.86,896.22 304.72,1576.52 893.18,1987.81 0.03,0 0.08,0 0.13,0 465.06,-10.29 844.52,-65.17 1132.13,-164.84 42.81,-14.87 89.48,7.83 104.3,50.61 14.82,42.76 -7.83,89.46 -50.61,104.3 -38.23,13.26 -78.13,25.64 -119.3,37.41 -0.05,0.03 -0.11,0.03 -0.13,0.05 -226.46,64.64 -490.14,113.74 -803.46,133.09 -0.11,0 -7.59,-7.25 -7.7,-7.22 802.67,411.71 1966.54,410.25 3300.91,-102.31 1496.25,-574.78 2888.48,-1669.89 3859.95,-2922.43 -14.67,6.6 -28.96,13.37 -42.74,20.27z"/>
    <path class="fil3" d="M1659.87 4106.58c42.44,313.45 134.09,606.98 270.09,874.34l77.66 142c49.16,83.42 102.84,163.94 160.92,241.43 280.59,18.02 539.3,24.26 775.97,19.02 465.06,-10.29 844.52,-65.17 1132.13,-164.84 42.81,-14.87 89.48,7.83 104.3,50.61 14.82,42.76 -7.83,89.46 -50.61,104.3 -38.23,13.26 -78.13,25.64 -119.3,37.41 -0.05,0.03 -0.11,0.03 -0.13,0.05 -226.46,64.64 -488.76,110.97 -802.06,130.31 -10.74,0.66 -29.53,0.77 -40.35,1.38 -123.27,6.91 -254.98,11.14 -391.08,11.14 -148.78,0 -300.96,-2.83 -464.79,-11.14 568.59,639.06 1463.2,1023.77 2577.6,1023.77 2019.13,0 3775.81,-766.42 4795.43,-2459.77l-8025.78 0.01 0 -0.02z"/>
    <path class="fil4" d="M2112.62 4106.58c120.7,550.41 410.77,982.48 831.88,1276.8 465.06,-10.29 844.52,-65.17 1132.13,-164.84 42.81,-14.87 89.48,7.83 104.3,50.61 14.82,42.76 -7.83,89.46 -50.61,104.3 -38.23,13.26 -78.13,25.64 -119.3,37.41 -0.05,0.03 -0.11,0.03 -0.13,0.05 -226.46,64.64 -494.32,110.97 -807.61,130.31 802.59,411.66 1963.13,405.76 3297.39,-106.79 807.16,-310.14 1584.06,-771.82 2281.05,-1327.84l-6669.1 0.01 0 -0.02z"/>
   </g>
   <g>
    <path class="fil5" d="M2779.11 5549.27c136.05,0 265.67,-3.52 388.91,-10.45 10.77,-0.61 21.03,-1.43 31.7,-2.09 0.11,-0.03 0.16,-0.03 0.26,-0.03 313.29,-19.34 584.44,-61.17 810.87,-125.81 0.05,-0.03 0.11,-0.03 0.13,-0.05 41.17,-11.77 81.04,-24.16 119.3,-37.41 42.76,-14.84 65.43,-61.52 50.61,-104.3 -14.82,-42.78 -61.46,-65.48 -104.3,-50.61 -287.6,99.67 -667.07,154.54 -1132.13,164.84 -0.05,0 -0.11,0 -0.13,0 -236.64,5.24 -495.3,-1.01 -775.86,-19.02 0,0 0,0 -0.03,0 -14.34,-0.9 -28.44,-1.72 -42.92,-2.7 -45.06,-2.88 -84.27,31.06 -87.39,76.23 -3.07,45.16 31.09,84.27 76.23,87.34 57.28,3.89 113.59,7.25 169.17,10.24 8.84,0.48 17.38,0.77 26.17,1.22l0 0c163.92,8.29 320.61,12.6 469.41,12.6z"/>
   </g>
   <g id="Containers">
    <path class="fil6" d="M3346.4 2383.98l72.87 0 0 769.09 -72.87 0 0 -769.09zm-139.8 0l75.75 0 0 769.09 -75.75 0 0 -769.09zm-139.84 0l75.75 0 0 769.09 -75.75 0 0 -769.09zm-139.85 0l75.75 0 0 769.09 -75.75 0 0 -769.09zm-139.81 0l75.75 0 0 769.09 -75.75 0 0 -769.09zm-136.92 0l72.81 0 0 769.09 -72.81 0 0 -769.09zm-76.86 -76.92l922.81 0 0 922.87 -922.81 0 0 -922.87z"/>
    <path class="fil6" d="M4411.22 1319.19l72.92 0 0 769.04 -72.92 0 0 -769.04zm-139.81 0l75.75 0 0 769.04 -75.75 0 0 -769.04zm-139.86 0l75.75 0 0 769.04 -75.75 0 0 -769.04zm-139.83 0l75.75 0 0 769.04 -75.75 0 0 -769.04zm-139.75 0l75.7 0 0 769.04 -75.7 0 0 -769.04zm-136.92 0l72.78 0 0 769.04 -72.78 0 0 -769.04zm-76.97 -76.91l922.92 0 0 922.84 -922.92 0 0 -922.84z"/>
    <path class="fil7" d="M4411.22 2383.98l72.92 0 0 769.09 -72.92 0 0 -769.09zm-139.81 0l75.75 0 0 769.09 -75.75 0 0 -769.09zm-139.86 0l75.75 0 0 769.09 -75.75 0 0 -769.09zm-139.83 0l75.75 0 0 769.09 -75.75 0 0 -769.09zm-139.75 0l75.7 0 0 769.09 -75.7 0 0 -769.09zm-136.92 0l72.78 0 0 769.09 -72.78 0 0 -769.09zm-76.97 -76.92l922.92 0 0 922.87 -922.92 0 0 -922.87z"/>
    <path class="fil6" d="M5476.06 2383.98l72.81 0 0 769.09 -72.81 0 0 -769.09zm-139.86 0l75.8 0 0 769.09 -75.8 0 0 -769.09zm-139.78 0l75.75 0 0 769.09 -75.75 0 0 -769.09zm-139.86 0l75.75 0 0 769.09 -75.75 0 0 -769.09zm-139.83 0l75.75 0 0 769.09 -75.75 0 0 -769.09zm-136.89 0l72.76 0 0 769.09 -72.76 0 0 -769.09zm-76.92 -76.92l922.86 0 0 922.87 -922.86 0 0 -922.87z"/>
    <path class="fil7" d="M5476.06 1319.19l72.81 0 0 769.04 -72.81 0 0 -769.04zm-139.86 0l75.8 0 0 769.04 -75.8 0 0 -769.04zm-139.78 0l75.75 0 0 769.04 -75.75 0 0 -769.04zm-139.86 0l75.75 0 0 769.04 -75.75 0 0 -769.04zm-139.83 0l75.75 0 0 769.04 -75.75 0 0 -769.04zm-136.89 0l72.76 0 0 769.04 -72.76 0 0 -769.04zm-76.92 -76.91l922.86 0 0 922.84 -922.86 0 0 -922.84z"/>
    <path class="fil7" d="M6540.87 2383.98l72.86 0 0 769.09 -72.86 0 0 -769.09zm-139.81 0l75.75 0 0 769.09 -75.75 0 0 -769.09zm-139.86 0l75.75 0 0 769.09 -75.75 0 0 -769.09zm-139.83 0l75.75 0 0 769.09 -75.75 0 0 -769.09zm-139.81 0l75.75 0 0 769.09 -75.75 0 0 -769.09zm-136.92 0l72.81 0 0 769.09 -72.81 0 0 -769.09zm-76.91 -76.92l922.86 0 0 922.87 -922.86 0 0 -922.87z"/>
    <path class="fil6" d="M6540.87 1319.19l72.86 0 0 769.04 -72.86 0 0 -769.04zm-139.81 0l75.75 0 0 769.04 -75.75 0 0 -769.04zm-139.86 0l75.75 0 0 769.04 -75.75 0 0 -769.04zm-139.83 0l75.75 0 0 769.04 -75.75 0 0 -769.04zm-139.81 0l75.75 0 0 769.04 -75.75 0 0 -769.04zm-136.92 0l72.81 0 0 769.04 -72.81 0 0 -769.04zm-76.91 -76.91l922.86 0 0 922.84 -922.86 0 0 -922.84z"/>
    <path class="fil7" d="M6540.87 254.32l72.86 0 0 769.09 -72.86 0 0 -769.09zm-139.81 0l75.75 0 0 769.09 -75.75 0 0 -769.09zm-139.86 0l75.75 0 0 769.09 -75.75 0 0 -769.09zm-139.83 0l75.75 0 0 769.09 -75.75 0 0 -769.09zm-139.81 0l75.75 0 0 769.09 -75.75 0 0 -769.09zm-136.92 0l72.81 0 0 769.09 -72.81 0 0 -769.09zm-76.91 -76.86l922.86 0 0 922.87 -922.86 0 0 -922.87z"/>
    <path class="fil6" d="M7605.65 2383.98l72.82 0 0 769.09 -72.82 0 0 -769.09zm-139.77 0l75.69 0 0 769.09 -75.69 0 0 -769.09zm-139.92 0l75.75 0 0 769.09 -75.75 0 0 -769.09zm-139.78 0l75.75 0 0 769.09 -75.75 0 0 -769.09zm-139.85 0l75.75 0 0 769.09 -75.75 0 0 -769.09zm-136.93 0l72.87 0 0 769.09 -72.87 0 0 -769.09zm-76.86 -76.92l922.87 0 0 922.87 -922.87 0 0 -922.87z"/>
   </g>
   <path class="fil8" d="M4503.21 4726.18c140.57,0 254.56,114.04 254.56,254.61 0,140.57 -113.98,254.56 -254.56,254.56 -140.63,0 -254.61,-113.98 -254.61,-254.56 0,-140.58 113.99,-254.61 254.61,-254.61z"/>
   <path class="fil0" d="M4503.21 4798.41c23.28,0 45.48,4.39 66.01,12.33 -22.2,12.86 -37.25,36.94 -37.25,64.45 0,41.12 33.31,74.37 74.43,74.37 28.15,0 52.6,-15.64 65.27,-38.74 8.92,21.54 13.89,45.16 13.89,69.96 0,100.67 -81.65,182.32 -182.32,182.32 -100.67,0 -182.38,-81.65 -182.38,-182.32 0,-100.72 81.68,-182.37 182.35,-182.37z"/>
   <path class="fil0" d="M-0 4198.6l5576.84 0 689.73 0 5576.7 0c-257.86,-65.41 -815.9,-153.78 -723.87,-491.73 -468.89,542.58 -1599.7,380.68 -1885.08,113.11 -317.79,460.96 -2167.89,285.72 -2296.93,-73.37 -398.41,467.57 -1632.95,467.57 -2031.41,0 -129.09,359.09 -1979.14,534.3 -2296.98,73.37 -285.38,267.57 -1416.1,429.47 -1885.05,-113.11 92,337.95 -466.03,426.3 -723.95,491.73z"/>
   <path class="fil9" d="M5179.99 6560.84c-630.5,-299.19 -976.6,-705.93 -1169.14,-1149.95 -234.21,66.86 -515.75,109.56 -842.83,127.93 -123.24,6.91 -252.86,10.45 -388.91,10.45 -156.79,0 -322.08,-4.63 -495.54,-13.84 578.19,577.84 1289.5,1022.76 2606.6,1030.89 97.23,0.02 193.78,-1.88 289.82,-5.48z"/>
   <path class="fil10" d="M4245.06 5820.59c-87.23,-118.4 -171.85,-267.22 -234.05,-409.75 -234.24,66.89 -515.83,109.62 -842.99,127.98 224.71,121.99 546.1,234.99 1077.04,281.77z"/>
  </g>
 </g>
</svg>
