<svg id="Layer_1" data-name="Layer 1" xmlns="http://www.w3.org/2000/svg" viewBox="0 0 500 161.85"><defs><style>.cls-1{fill:#7d7a84;}.cls-2{fill:#dd2416;}.cls-3{fill:#fd4b1c;}.cls-4{fill:#fa881e;}</style></defs><path class="cls-1" d="M613.25,463.44h-9.9l0,73.6h40v-9.1H613.28l0-64.5Zm68.28,60.68a16.87,16.87,0,0,1-12.26,5.17c-7.53,0-10.57-3.71-10.57-8.54,0-7.31,5.06-10.79,15.86-10.79a44.63,44.63,0,0,1,7,.56v13.6ZM671.3,479.51a33,33,0,0,0-21,7.54l3.5,6.05a30.25,30.25,0,0,1,16.07-4.72c8.1,0,11.7,4.16,11.7,11.13v3.59a43.28,43.28,0,0,0-6.86-.56c-17.32,0-26.09,6.07-26.09,18.77,0,11.35,7,17.08,17.54,17.08,7.12,0,14-3.26,16.31-8.54l1.8,7.19h7V499.4c0-11.92-5.17-19.89-19.9-19.89Zm51.83,50.11a23.48,23.48,0,0,1-9.45-1.57V494a19.53,19.53,0,0,1,12.82-4.83c9.56,0,13.27,6.74,13.27,17.64,0,15.51-6,22.81-16.64,22.81m4.16-50.12a18.12,18.12,0,0,0-13.61,6V476l0-12.58H704l0,71.8c4.84,2,11.47,3.15,18.67,3.15,18.44,0,27.32-11.8,27.32-32.14,0-16.07-8.21-26.75-22.71-26.75m-221.6-8.09c8.77,0,14.39,2.93,18.1,5.85L528,469.9a33,33,0,0,0-21.9-7.81c-21,0-35.76,12.81-35.76,38.65,0,27.09,15.89,37.65,34.07,37.65a57.7,57.7,0,0,0,21.92-4.27l-.2-28.94v-9.1h-27v9.1h17.2l.21,22c-2.25,1.12-6.18,2-11.47,2-14.61,0-24.4-9.19-24.4-28.54,0-19.66,10.12-29.22,25-29.22m69.58-8H565.6l0,12.36v42.7c0,11.91,5.18,19.89,19.91,19.89a33.53,33.53,0,0,0,6-.54v-8.68a29,29,0,0,1-4.5.34c-8.1,0-11.7-4.16-11.7-11.12V488.94h16.2v-8.09H575.3ZM541.07,537h9.67V480.85h-9.67V537Zm0-63.94h9.67v-9.66h-9.67Z" transform="translate(-250 -419.07)"/><path class="cls-2" d="M337.85,580.93l32.35-99.57H305.5l32.35,99.57Z" transform="translate(-250 -419.07)"/><path class="cls-3" d="M337.85,580.93,305.5,481.36H260.16l77.69,99.56Z" transform="translate(-250 -419.07)"/><path class="cls-4" d="M260.16,481.36l-9.83,30.25a6.68,6.68,0,0,0,2.43,7.49l85.09,61.83-77.69-99.57Z" transform="translate(-250 -419.07)"/><path class="cls-2" d="M260.16,481.36H305.5l-19.49-60a3.34,3.34,0,0,0-6.36,0l-19.49,60Z" transform="translate(-250 -419.07)"/><path class="cls-3" d="M337.85,580.93l32.35-99.57h45.34l-77.69,99.56Z" transform="translate(-250 -419.07)"/><path class="cls-4" d="M415.54,481.36l9.84,30.25a6.7,6.7,0,0,1-2.44,7.49l-85.09,61.83,77.69-99.57Z" transform="translate(-250 -419.07)"/><path class="cls-2" d="M415.54,481.36H370.2l19.49-60a3.35,3.35,0,0,1,6.37,0l19.48,60Z" transform="translate(-250 -419.07)"/></svg>