<?xml version="1.0" encoding="UTF-8"?>
<!DOCTYPE svg PUBLIC "-//W3C//DTD SVG 1.1//EN" "http://www.w3.org/Graphics/SVG/1.1/DTD/svg11.dtd">
<!-- Creator: CorelDRAW -->
<svg xmlns="http://www.w3.org/2000/svg" xml:space="preserve" width="100%" height="100%" version="1.1" style="shape-rendering:geometricPrecision; text-rendering:geometricPrecision; image-rendering:optimizeQuality; fill-rule:evenodd; clip-rule:evenodd"
viewBox="0 0 11773.82 13229.15"
 xmlns:xlink="http://www.w3.org/1999/xlink"
 xmlns:xodm="http://www.corel.com/coreldraw/odm/2003">
 <defs>
  <style type="text/css">
   <![CDATA[
    .fil0 {fill:#E535AB}
   ]]>
  </style>
 </defs>
 <g id="Слой_x0020_1">
  <metadata id="CorelCorpID_0Corel-Layer"/>
  <path class="fil0" d="M6758.85 11255.87c-215.51,-236.5 -526.15,-384.74 -871.93,-384.74 -333.91,0 -635.04,138.23 -849.38,360.67l-2722.29 -1571.76c4.38,-15.12 8.46,-30.32 12.23,-45.6l7118.56 0c6.38,26.02 13.65,51.82 21.78,77.35l-2708.97 1564.08zm2686.05 -2202.21l-7115.91 0c-25.83,-106.44 -67.01,-211.06 -124.35,-310.81 -57.86,-99.61 -127.93,-187.64 -207.21,-263.28l3561.06 -6167.75c104.22,30.08 214.42,46.2 328.43,46.2 114.38,0 224.91,-16.22 329.42,-46.49l3560.39 6166.57c-79.69,75.97 -149.91,164.49 -207.54,264.75 -57.3,99.67 -98.46,204.3 -124.29,310.81zm864.12 -866.37c-15.29,3.75 -30.51,7.81 -45.64,12.16l-3561.25 -6168.07c10.74,-10.28 21.29,-20.76 31.64,-31.43l2726.7 1574.31c-84.28,296.02 -53.34,624.25 112.09,912.04 165.98,288.74 436.38,480.13 736.46,554.72l0 3146.27zm-8272.92 1959.15l2719.5 1570.15c-31.04,105.73 -47.69,217.67 -47.69,333.55 0,652.01 527.02,1179.01 1179.01,1179.01 651.98,0 1179,-530.38 1179,-1179.01 0,-129.87 -20.91,-254.78 -59.55,-371.55l2703.62 -1561c81.71,91.76 179.3,172.12 291.61,236.68 564.17,324.32 1287.12,131.76 1611.42,-432.41 327.69,-564.17 135.13,-1283.73 -432.41,-1611.42 -99.67,-57.3 -204.29,-98.46 -310.8,-124.29l0 -3142.34c107.67,-25.78 213.45,-67.2 314.17,-125.1 564.17,-327.69 756.71,-1047.25 432.41,-1611.42 -327.69,-564.17 -1047.25,-756.71 -1611.42,-432.41 -101.49,58.95 -190.96,130.59 -267.56,211.72l-2720.21 -1570.56c31.7,-106.75 48.72,-219.87 48.72,-337.03 0,-652.01 -527.02,-1179.01 -1179,-1179.01 -651.99,0 -1179.01,526.99 -1179.01,1179.01 0,116.51 16.83,229.04 48.19,335.27l-2720.94 1570.99c-76.32,-80.58 -165.36,-151.76 -266.3,-210.39 -564.17,-324.32 -1287.12,-131.76 -1611.42,432.41 -324.32,564.17 -131.76,1287.12 432.41,1611.42 100.72,57.9 206.5,99.33 314.17,125.1l0 3142.28c-106.44,25.83 -211.05,67.01 -310.8,124.35 -564.17,327.69 -756.71,1047.25 -432.41,1611.42 324.32,564.17 1043.88,756.74 1611.42,432.41 99.87,-58.01 188.1,-128.3 263.87,-207.83zm3036.35 -8114.33l-3561.18 6167.96c-15.4,-4.47 -30.89,-8.63 -46.46,-12.47l0 -3146.57c300.09,-74.59 570.48,-265.99 736.46,-554.73 165.77,-288.37 196.49,-617.35 111.57,-913.84l2725.92 -1573.85c11,11.39 22.24,22.56 33.69,33.5z"/>
 </g>
</svg>
