<?xml version="1.0" encoding="UTF-8"?>
<!DOCTYPE svg PUBLIC "-//W3C//DTD SVG 1.1//EN" "http://www.w3.org/Graphics/SVG/1.1/DTD/svg11.dtd">
<!-- Creator: CorelDRAW -->
<svg xmlns="http://www.w3.org/2000/svg" xml:space="preserve" width="100%" height="100%" version="1.1" style="shape-rendering:geometricPrecision; text-rendering:geometricPrecision; image-rendering:optimizeQuality; fill-rule:evenodd; clip-rule:evenodd"
viewBox="0 0 11906.24 11905.77"
 xmlns:xlink="http://www.w3.org/1999/xlink"
 xmlns:xodm="http://www.corel.com/coreldraw/odm/2003">
 <defs>
  <style type="text/css">
   <![CDATA[
    .fil4 {fill:#47474A;fill-rule:nonzero}
    .fil1 {fill:#599636;fill-rule:nonzero}
    .fil2 {fill:#6CAC48;fill-rule:nonzero}
    .fil3 {fill:#C2BFBF;fill-rule:nonzero}
    .fil0 {fill:white;fill-rule:nonzero}
   ]]>
  </style>
 </defs>
 <g id="Слой_x0020_1">
  <metadata id="CorelCorpID_0Corel-Layer"/>
  <g id="_105553286306208">
   <path class="fil0" d="M10551.37 11905.77l-9196.96 0c-748.16,0 -1354.4,-606.24 -1354.4,-1354.4l-0.01 -9196.96c0,-748.16 606.24,-1354.4 1354.4,-1354.4l9197.44 -0.01c747.69,0 1354.4,606.24 1354.4,1354.4l0 9197.44c-0.47,747.69 -606.71,1353.93 -1354.87,1353.93l0 0z"/>
   <path class="fil1" d="M5998.6 906.76l226.7 425.74c50.96,78.58 106.2,148.11 170.97,212.88 190.5,188.12 368.11,389.07 531.47,601.48 383.83,503.85 642.91,1063.89 827.7,1669.65 110.97,369.54 170.97,749.59 175.74,1132.95 18.57,1147.22 -374.78,2132.08 -1167.24,2950.73 -128.59,129.54 -268.13,249.08 -416.69,355.73 -78.58,0 -115.73,-60.01 -148.11,-115.73 -59.06,-102.87 -98.11,-215.74 -115.73,-332.9 -28.1,-139.07 -46.2,-277.65 -37.15,-420.5l0 -64.77c-6.22,-14.74 -75.27,-6382.4 -47.66,-6415.26l0 0z"/>
   <path class="fil2" d="M5998.6 892.95c-9.04,-18.57 -18.56,-4.76 -28.09,4.76 4.76,92.87 -28.1,175.74 -78.58,254.79 -55.72,78.58 -129.54,139.07 -203.84,203.84 -410.98,355.73 -734.83,786.26 -993.88,1267.25 -345.25,647.2 -522.9,1341.07 -572.9,2072.08 -22.86,263.37 83.34,1192.95 166.69,1461.07 226.7,712.44 633.39,1309.16 1161.04,1826.82 129.54,124.78 268.13,240.51 410.98,351.92 41.91,0 46.2,-37.15 55.72,-64.77 18.57,-59.06 32.39,-119.06 41.91,-180.02l92.86 -693.39 -51.91 -6504.35z"/>
   <path class="fil3" d="M6225.3 8536.91c9.05,-106.2 60.01,-193.83 115.73,-281.94 -55.72,-22.86 -97.16,-69.06 -129.54,-120.02 -28.1,-48.58 -50.96,-99.54 -69.06,-152.88 -64.77,-193.83 -78.58,-398.12 -97.16,-596.24l0 -120.02c-22.86,18.57 -28.1,175.74 -28.1,199.07 -13.34,210.03 -41.42,418.12 -83.33,624.34 -13.81,83.34 -22.86,166.69 -74.3,240.51 0,9.05 0,18.57 4.76,32.39 83.34,245.27 106.2,494.8 120.02,749.59l0 92.87c0,110.97 -4.76,87.63 87.62,124.78 37.15,13.81 78.58,18.57 115.73,46.2 28.1,0 32.39,-22.86 32.39,-41.91l-13.81 -152.88 0 -425.74c-4.29,-74.3 9.52,-148.11 19.05,-218.12l0 0z"/>
   <path class="fil4" d="M2282.72 10603.04l0 205.71c0,8.26 0,16.54 1.46,24.32 2.43,24.32 17.52,39.4 39.4,46.2 20.43,5.34 41.33,9.23 62.26,12.17 12.17,1.46 16.06,6.8 17.52,19.95 1.46,46.2 -2.43,51.54 -47.18,48.63 -104.06,-5.34 -208.62,-6.8 -312.68,0l-9.75 -0.01c-32.6,1.46 -35,-1.46 -35,-34.05 0,-5.34 1.46,-12.14 1.46,-17.52 0,-9.74 6.8,-15.08 16.06,-15.08 21.88,-2.43 41.83,-8.26 62.26,-12.17 28.2,-6.8 44.74,-24.32 47.18,-53 3.89,-31.12 3.89,-63.71 3.89,-94.83l1.46 -362.77c0.98,-21.4 -10.69,-41.33 -29.66,-51.54 -24.32,-13.63 -50.59,-24.32 -77.31,-32.57 -8.26,-2.43 -16.06,-3.89 -22.86,-8.26 -19.95,-9.74 -20.43,-27.23 -1.46,-37.94 6.8,-3.89 15.08,-6.8 22.86,-8.26 82.07,-12.14 162.72,-32.52 240.72,-60.77 16.06,-5.34 20.43,-3.89 21.88,12.17 1.46,9.74 0,21.88 -1.46,31.12 -2.43,17.52 -2.43,35 -2.43,51.54 0,6.8 1.46,13.63 8.26,17.52 6.8,3.89 13.63,0 19.92,-3.89 28.2,-21.88 56.91,-41.83 88.03,-59.32 44.74,-24.32 91.92,-46.2 143.46,-53 62.26,-8.26 116.23,8.26 163.88,48.63 19.45,17.52 36.96,37.44 51.54,59.32 13.63,19.95 15.08,20.43 32.57,6.8 51.54,-37.94 105.52,-71.49 163.88,-96.28 60.77,-25.77 123.03,-29.66 185.29,-8.26 63.71,22.86 107,67.6 132.77,128.38 21.88,48.63 31.12,99.19 31.12,151.74l0 362.77c0,24.32 9.74,39.4 34.05,51.54 25.77,9.74 53.98,15.08 81.2,20.43 17.52,3.89 17.52,3.89 17.52,21.88 -2.43,44.74 -6.8,47.18 -50.09,44.74 -108.51,-6.32 -217.3,-6.32 -325.81,0 -21.88,1.46 -21.88,1.46 -22.86,-20.43l0 -6.8c-1.46,-36.46 -1.46,-36.46 34.05,-44.74l35 -9.74c24.32,-5.85 41.83,-27.73 41.83,-53l3.89 -101.63 -2.43 -265.03c-0.98,-23.84 -5.85,-47.18 -15.08,-69.06 -34.05,-82.68 -108.45,-112.34 -179.92,-104.06 -53.98,5.34 -101.63,27.23 -146.37,58.37 -9.74,6.8 -16.06,15.08 -15.08,28.2 12.17,86.57 3.89,173.12 5.34,259.69l0 188.2c0,34.05 13.63,50.09 46.2,58.34l62.26 13.63c9.74,1.46 15.08,5.34 15.08,16.06l0 9.71c-1.46,37.94 -3.89,39.4 -41.83,39.4 -108.45,-5.34 -216.4,-3.89 -323.37,0 -36.46,1.46 -39.4,-2.43 -37.94,-39.4 1.46,-21.88 3.89,-22.86 24.32,-27.23l44.74 -8.26c39.4,-8.26 53.98,-22.86 56.91,-65.17l3.89 -90.94 -2.43 -271.83c-2.43,-34.05 -9.74,-66.15 -28.2,-97.26 -27.23,-50.09 -69.53,-75.86 -127.4,-78.29 -58.37,-3.89 -109.41,17.52 -158.54,44.74 -34.05,19.95 -48.63,43.29 -46.2,82.68l0 197.43 -2.07 0.38zm2549.63 8.28l0 190.63c0,13.63 0.98,27.23 2.43,40.35 0.98,18.47 14.58,34.05 32.6,37.94 23.34,6.8 47.18,10.69 71.49,12.17 13.63,1.46 16.06,6.8 17.52,17.52l0 9.74c-1.46,47.18 -6.8,53 -53,50.09 -103.08,-6.8 -205.71,-5.34 -308.32,0l-39.4 1.46c-8.26,0 -9.74,-3.89 -12.17,-9.74 -3.89,-18.76 -3.89,-38.13 0,-56.89 1.46,-8.26 6.8,-9.74 15.08,-12.17 19.95,-2.43 36.49,-6.8 55.43,-9.74 34.05,-8.26 46.2,-21.88 47.18,-56.89l3.89 -113.8 0 -333.11c0,-24.32 -9.74,-39.4 -31.12,-50.09 -24.32,-13.63 -50.09,-22.86 -77.31,-32.57 -8.26,-2.43 -16.06,-5.34 -22.86,-9.74 -17.52,-12.17 -19.92,-29.66 -2.43,-43.29 7.78,-6.32 17.01,-10.21 27.23,-10.69 86.57,-13.63 170.68,-32.57 251.91,-65.17 9.74,-3.89 13.63,-1.46 17.52,6.8 3.89,8.26 5.34,17.52 3.89,27.23l-3.89 63.71c0,8.26 -3.89,19.92 2.43,22.86 8.26,5.34 13.63,-6.8 20.43,-9.74 39.87,-33.55 84.03,-61.7 131.29,-83.63 41.83,-19.92 85.09,-32.57 133.72,-29.66 90.94,5.34 155.6,51.54 197.43,131.29 21.88,41.83 31.12,88.03 35,135.18l3.89 99.19 1.46 299.09c1.46,22.86 9.74,37.91 32.6,46.2 23.81,7.78 48.21,13.63 72.95,17.52 21.88,2.43 22.86,6.8 24.32,27.23l0 6.8c-2.43,46.2 -5.34,47.18 -51.54,44.74 -100.91,-5.34 -202.04,-5.34 -302.95,0 -13.63,1.46 -27.23,0 -39.4,1.46 -8.26,0 -13.63,-1.46 -15.08,-9.74 -2.43,-17.52 -5.34,-35 -1.46,-53.98 1.46,-8.26 5.34,-12.17 15.08,-13.63l62.23 -9.74c21.88,-5.34 34.05,-19.92 36.46,-39.4l2.43 -37.94 -1.46 -283.02c0,-32.57 -1.46,-65.17 -8.26,-97.26 -16.06,-69.53 -69.06,-118.67 -140.55,-125.94 -62.26,-6.8 -118.67,9.74 -170.68,43.29 -25.77,16.06 -36.49,39.4 -36.49,67.6l0 204.23c0,-3.89 0,-3.89 1.46,-3.89l-0.98 -2.86z"/>
   <path class="fil3" d="M8795.12 10228.6c-15.08,-98.72 -51.54,-186.74 -115.25,-264.05 -55.43,-68.08 -126.92,-121.1 -208.62,-154.15 -85.09,-35 -176.03,-46.2 -267.94,-48.63 -37.94,-1.46 -554.86,6.8 -592.8,0 -9.74,-1.46 -16.06,1.46 -21.88,9.74 -6.8,9.74 -13.63,20.43 -17.52,31.12 -16.06,36.46 -16.06,34.05 22.86,39.4 32.57,5.34 63.71,8.28 94.83,17.52 28.2,9.74 48.63,25.77 55.43,56.89 2.43,15.08 5.34,491.15 5.34,712.89l-5.34 158.54c-1.46,12.14 -2.43,24.32 -6.8,35 -5.34,16.06 -15.08,29.66 -31.12,36.46 -17.99,8.26 -36.96,13.63 -56.89,15.08 -36.49,3.89 -41.83,5.34 -53.98,46.2l-3.89 15.08c-2.43,17.52 -1.46,20.43 16.06,20.43l404.6 3.89 158.54 -2.43 109.41 -13.63c124.49,-22.86 235.37,-74.4 330.2,-157.08 53.98,-47.65 98.24,-105.52 129.83,-170.68 37.91,-75.86 53.98,-158.54 58.34,-242.17 7.3,-48.16 4.87,-96.79 -3.41,-145.42l0 0zm-195.98 192.09c-5.34,86.57 -22.86,170.68 -67.6,246.06 -56.91,98.72 -138.11,167.77 -250.43,192.09 -48.63,9.74 -97.26,15.08 -148.33,8.26 -36.46,-3.89 -71.49,-8.26 -105.52,-20.43 -60.77,-21.88 -82.68,-59.32 -83.63,-118.67l-1.46 -816c0,-48.63 21.88,-59.32 56.89,-60.77 53,-3.89 107,-2.43 159.52,2.43 56.41,5.34 111.36,18.97 163.88,39.4 38.92,16.06 74.88,38.42 107,66.15 72.95,62.26 121.58,140.55 148.33,232.44 21.88,74.4 25.77,150.26 21.88,226.11l-0.53 2.93zm1320.77 132.74c0,-8.26 0,-15.08 -1.46,-22.86 -12.17,-74.4 -51.54,-131.29 -112.34,-174.57 -39.4,-28.2 -83.63,-47.18 -129.83,-60.77 -8.26,-2.43 -15.08,-5.34 -22.86,-6.8 1.46,-6.8 5.34,-8.26 9.74,-9.74 27.23,-13.63 53,-28.2 75.86,-48.63 41.83,-35 69.53,-78.29 83.63,-131.29 8.26,-28.2 8.26,-56.91 5.34,-86.57 -4.37,-70.51 -40.85,-135.18 -98.72,-176.03 -62.26,-46.2 -135.18,-65.17 -211.06,-66.15 -146.37,-2.43 -293.71,0 -439.61,0 -41.83,0 -83.63,2.43 -127.4,-3.89 -8.26,-1.46 -19.95,-3.89 -25.77,5.34 -9.74,17.52 -21.88,35 -25.77,55.43 -1.46,9.74 1.46,15.08 12.14,16.06l93.37 13.63c36.46,5.34 62.26,25.77 65.17,58.34 2.43,22.36 3.89,45.22 3.89,67.6l-2.43 252.86 -1.46 500.41c0,29.66 -3.89,58.34 -9.74,88.03 -2.91,19.45 -16.54,35 -35,40.35 -27.23,8.26 -53,16.06 -81.2,16.06 -15.56,-1.46 -30.16,8.26 -35,22.86 -5.34,12.14 -9.74,25.77 -12.17,37.91 -2.43,16.06 1.46,21.88 17.52,19.95 12.17,-1.46 458.58,9.74 542.71,1.46 50.09,-5.34 99.19,-12.17 148.8,-27.23 85.09,-27.23 163.88,-66.15 226.11,-132.77 51.54,-53.98 81.2,-119.14 83.63,-195 3.91,-17.51 3.91,-35.02 3.91,-53.99l0 0zm-656.48 -554.86l3.89 -108.43c0,-20.43 8.26,-29.66 28.2,-34.05 32.6,-6.8 65.17,-3.89 97.26,-2.43 32.57,2.43 63.71,6.8 96.28,16.06 59.32,17.49 105.52,51.54 132.77,108.43 12.14,25.77 18.97,53.98 18.97,82.68 1.46,37.94 -1.46,74.4 -16.06,110.86 -22.86,50.09 -59.32,82.68 -112.34,91.92 -53,9.74 -202.78,5.34 -226.11,5.34 -20.43,0 -21.88,-2.43 -21.88,-22.86l0 -127.4c-3.41,-39.4 -3.41,-79.27 -1.46,-119.14l0.48 -0.98zm439.6 727.98c-22.86,60.77 -65.17,103.08 -124.49,125.94 -32.6,12.14 -65.17,19.92 -99.19,17.52 -41.83,-1.46 -83.63,0 -125.94,-8.26 -56.89,-12.17 -82.66,-66.15 -86.57,-105.52 -6.8,-69.06 -2.43,-139.57 -3.89,-190.63l0 -178.46c0,-21.88 2.43,-28.2 25.77,-28.2l127.4 1.46 86.57 9.74c60.77,13.63 116.23,36.46 159.52,83.63 35,37.94 53.98,83.63 58.34,133.72 3.89,47.18 1.46,93.37 -16.06,138.11l-1.46 0.95z"/>
   <path class="fil4" d="M6264.96 10319.03l35 5.34c37.91,1.46 82.66,-12.14 96.28,-65.17 7.3,-25.27 7.3,-52.07 0,-77.31 -8.26,0 -12.17,6.8 -16.06,9.74 -20.43,16.06 -43.29,25.77 -67.6,28.2 -48.63,5.34 -97.26,2.43 -144.91,-15.08l-66.15 -22.86c-46.2,-15.08 -94.83,-21.4 -143.45,-18.97 -69.06,5.34 -133.72,28.2 -195,60.77 -65.17,35 -110.89,88.03 -132.77,159.52 -12.17,41.83 -13.63,85.09 -8.26,128.38 13.63,98.72 65.17,167.77 157.08,204.23 5.34,1.46 9.74,3.89 15.08,5.34 12.17,6.8 13.63,13.63 2.43,22.86l-34.03 22.86 -81.2 50.09c-20.43,12.17 -22.86,21.88 -16.06,43.29 8.26,25.29 22.86,47.65 43.29,65.17 18.47,16.06 39.4,28.68 62.23,37.94 15.08,6.8 15.08,9.74 1.46,21.88l-77.31 55.43c-25.77,19.95 -51.54,39.4 -72.95,65.17 -30.56,32.49 -42.81,78.16 -32.6,121.58 10.21,47.18 34.53,89.48 70.51,121.58 35.11,32.7 77.95,55.96 124.49,67.6 75.86,21.88 154.15,22.86 231.47,8.26 110.89,-20.43 208.12,-69.53 284,-152.69 53,-55.43 83.63,-120.6 86.57,-197.91 6.32,-92.9 -55.93,-176.03 -146.37,-197.43l-72.95 -13.63 -223.19 -19.95c-24.32,-1.46 -48.63,-5.34 -69.06,-17.52 -25.77,-16.06 -32.57,-47.18 -16.06,-67.6 12.17,-15.08 27.25,-24.32 46.2,-25.77l43.29 -3.89c85.53,-8.7 165.83,-45.27 228.54,-104.06 33.5,-31.09 57.44,-71.04 69.06,-115.25 16.06,-58.37 16.06,-118.67 2.43,-177.99 -3.89,-15.08 -2.43,-16.06 16.06,-13.63l0.51 1.48zm-331.65 674c8.26,1.46 16.06,0 24.32,0 56.88,2.43 115.24,6.8 170.67,21.88 17.99,5.34 35.98,12.17 53,20.43 53.98,29.66 74.4,81.2 67.6,136.66 -8.26,60.77 -41.83,104.06 -94.83,132.77 -35,19.95 -74.4,28.2 -115.25,32.6 -15.08,1.46 -28.2,0 -43.29,0 -47.17,1.46 -93.36,-3.89 -138.1,-22.86 -31.12,-12.17 -56.89,-29.66 -79.75,-53.98 -47.18,-47.18 -69.53,-133.72 1.46,-204.23 43.29,-40.41 91.92,-68.61 154.17,-63.27l0 0zm154.64 -422.09c-28.2,71.49 -90.94,93.37 -152.68,83.63 -56.89,-8.26 -98.72,-39.4 -125.94,-90.94 -35,-69.06 -44.74,-140.55 -24.32,-214.95 15.08,-55.43 48.63,-97.26 108.43,-107 75.86,-13.63 148.32,13.63 186.73,89.48 19.95,36.46 28.2,81.2 28.2,144.91 -1.47,25.82 -6.82,60.85 -20.42,94.87l0 0zm-1704.94 -92.39c-12.17,-72.95 -39.4,-139.57 -89.48,-195 -74.4,-82.68 -169.23,-118.67 -276.2,-119.14 -93.37,-1.46 -181.4,25.77 -259.69,74.4 -77.31,46.2 -133.72,120.12 -158.54,207.17 -22.86,78.29 -21.88,158.54 -3.89,238.28 47.18,213.97 212.51,305.88 409.95,292.26 58.37,-3.89 113.8,-22.86 166.32,-48.63 78.29,-36.46 135.18,-94.83 174.57,-171.66 31.12,-63.71 44.74,-131.29 43.29,-208.62l-6.33 -69.06zm-192.08 300.54c-19.92,62.26 -74.4,106.97 -139.57,113.8 -59.32,8.26 -115.25,-6.8 -164.86,-41.83 -35.98,-26.75 -65.17,-61.28 -85.09,-101.63 -55.43,-113.8 -65.17,-232.44 -36.46,-354.52 9.23,-37.94 28.68,-71.97 56.89,-98.72 50.09,-46.2 108.45,-56.89 173.12,-43.29 62.23,13.63 109.41,47.18 148.33,98.72 38.89,51.54 56.89,110.86 67.6,173.12 5.34,31.12 5.34,63.71 6.8,83.63 0,65.17 -5.34,118.67 -25.77,170.68l-0.99 0.04zm3148.71 -289.35c-9.74,-78.29 -39.4,-150.26 -94.83,-209.6 -72.95,-79.75 -167.77,-113.8 -273.29,-115.25 -90.94,-1.46 -174.57,24.32 -251.91,69.06 -86.57,51.54 -146.37,124.49 -169.23,223.2 -27.23,107.95 -16.06,221.75 32.57,321.92 44.74,94.83 120.6,155.6 220.77,182.85 110.86,29.66 216.4,16.06 319.48,-34.05 89.48,-43.29 152.69,-110.89 189.65,-202.78 21.88,-53.98 29.66,-112.34 31.12,-179.94 1.04,-12.12 -1.89,-34.03 -4.33,-55.41l0 0zm-186.71 271.84c-21.88,72.95 -67.6,120.6 -144.91,131.29 -56.89,8.28 -110.86,-5.34 -159.52,-37.94 -41.83,-28.2 -71.49,-66.15 -93.37,-110.89 -24.32,-47.18 -37.94,-97.26 -43.29,-148.8 -8.26,-63.71 -8.26,-125.94 6.8,-189.65 2.91,-12.65 6.8,-24.79 12.14,-36.46 37.94,-94.83 121.58,-138.11 220.77,-116.23 66.15,15.08 116.23,51.54 154.15,107 36.46,53.98 53.98,113.8 62.23,177.99 3.89,25.77 5.34,53 3.89,75.86 0,53 -3.89,101.63 -19.92,148.8l1.03 -0.97z"/>
  </g>
 </g>
</svg>
