<?xml version="1.0" encoding="UTF-8"?>
<!DOCTYPE svg PUBLIC "-//W3C//DTD SVG 1.1//EN" "http://www.w3.org/Graphics/SVG/1.1/DTD/svg11.dtd">
<!-- Creator: CorelDRAW -->
<svg xmlns="http://www.w3.org/2000/svg" xml:space="preserve" width="100%" height="100%" version="1.1" style="shape-rendering:geometricPrecision; text-rendering:geometricPrecision; image-rendering:optimizeQuality; fill-rule:evenodd; clip-rule:evenodd"
viewBox="0 0 11793.8 11747.52"
 xmlns:xlink="http://www.w3.org/1999/xlink"
 xmlns:xodm="http://www.corel.com/coreldraw/odm/2003">
 <defs>
  <style type="text/css">
   <![CDATA[
    .fil0 {fill:#E0234E;fill-rule:nonzero}
   ]]>
  </style>
 </defs>
 <g id="Слой_x0020_1">
  <metadata id="CorelCorpID_0Corel-Layer"/>
  <g id="_105553286455296">
   <path class="fil0" d="M6944.39 0c-85.28,0 -164.47,18.28 -237.57,42.65 155.34,103.56 240.61,240.61 283.26,395.95 3.04,21.33 9.13,36.54 12.2,57.86 3.04,18.28 6.09,36.54 6.09,54.82 12.2,268.02 -70.06,301.52 -127.93,459.9 -88.32,204.07 -63.95,423.36 42.65,600.02 9.13,21.33 21.33,45.69 36.54,67.02 -115.73,-770.57 526.92,-886.33 645.69,-1126.94 9.13,-210.16 -164.47,-350.26 -301.52,-447.73 -130.99,-79.18 -249.76,-103.55 -359.41,-103.55zm968.54 173.62c-12.2,70.06 -3.04,51.78 -6.09,88.32 -3.04,24.37 -3.04,54.82 -6.09,79.19 -6.09,24.37 -12.2,48.74 -21.33,73.1 -6.09,24.37 -15.24,48.74 -24.37,73.1 -12.2,24.37 -21.33,45.69 -33.5,70.06 -9.13,12.2 -15.24,24.37 -24.37,36.54 -6.09,9.13 -12.2,18.28 -18.28,27.41 -15.24,21.33 -30.45,42.65 -45.69,60.91 -18.28,18.28 -33.5,39.58 -54.82,54.82 0,3.04 0,3.04 0,3.04 -18.28,15.24 -36.54,33.5 -57.86,48.74 -63.95,48.74 -137.05,85.28 -204.07,130.97 -21.33,15.24 -42.65,27.41 -60.91,45.69 -21.33,15.24 -39.58,30.45 -57.86,48.74 -21.33,18.28 -36.54,36.54 -54.82,57.86 -15.24,18.28 -33.5,39.58 -45.69,60.91 -15.24,21.33 -30.45,42.65 -42.65,63.95 -12.2,24.37 -21.33,45.69 -33.5,70.06 -9.13,24.37 -18.28,45.69 -24.37,70.06 -9.13,27.41 -15.24,51.78 -21.33,76.15 -3.04,12.2 -3.04,27.41 -6.09,39.58 -3.04,12.2 -3.04,24.37 -6.09,36.54 0,24.37 -3.04,51.78 -3.04,76.15 0,18.28 0,36.54 3.04,54.82 0,24.37 3.04,48.74 9.13,76.15 3.04,24.37 9.13,48.74 15.24,73.1 9.13,24.37 15.24,48.74 24.37,73.1 6.09,15.24 15.24,30.45 21.33,42.65l-700.54 -271.07c-118.8,-33.5 -234.53,-63.95 -353.3,-91.36 -63.95,-15.24 -127.92,-30.45 -191.87,-45.69 -182.75,-36.54 -368.54,-63.95 -554.33,-82.23 -6.09,0 -9.13,-3.04 -15.24,-3.04 -182.75,-18.28 -362.45,-27.41 -545.2,-27.41 -134.01,0 -268.02,6.09 -398.99,15.24 -185.79,12.2 -371.58,36.54 -557.37,67.02 -45.69,6.09 -91.36,15.24 -137.05,24.37 -94.43,18.28 -185.79,39.58 -274.11,60.91 -45.69,12.2 -91.36,24.37 -137.05,36.54 -45.69,18.28 -88.32,39.61 -130.97,57.86 -33.5,15.24 -67.02,30.45 -100.52,45.69 -6.09,3.04 -12.2,3.04 -15.24,6.09 -30.45,15.24 -57.86,27.41 -85.28,42.65 -9.13,3.04 -15.24,6.09 -21.33,9.13 -33.5,15.24 -67.02,33.5 -94.43,48.74 -21.33,9.13 -42.65,21.33 -60.91,30.45 -9.13,6.09 -21.33,12.2 -27.41,15.24 -27.41,15.24 -54.82,30.45 -79.19,45.69 -27.41,15.24 -51.78,30.45 -73.1,45.69 -21.33,15.24 -42.65,27.41 -60.91,42.65 -3.04,3.04 -6.09,3.04 -9.13,6.09 -18.28,12.2 -39.58,27.41 -57.86,42.65 0,0 -3.04,3.04 -6.09,6.09 -15.24,12.2 -30.45,24.37 -45.69,36.54 -6.09,3.04 -12.2,9.13 -18.28,12.2 -15.24,12.2 -30.45,27.41 -45.69,39.61 -3.04,6.09 -9.13,9.13 -12.2,12.2 -18.28,18.28 -36.54,33.5 -54.82,51.78 -3.04,0 -3.04,3.04 -6.09,6.09 -18.28,15.24 -36.54,33.5 -54.82,51.78 -3.04,3.04 -3.04,6.09 -6.09,6.09 -15.24,15.24 -30.45,30.45 -45.69,48.74 -6.09,6.09 -15.24,12.2 -21.33,18.28 -15.24,18.28 -33.5,36.54 -51.78,54.82 -3.04,6.09 -9.13,9.13 -12.2,15.24 -24.37,24.37 -45.69,48.74 -70.06,73.1 -3.04,3.04 -6.09,6.09 -9.13,9.13 -48.74,51.78 -100.52,103.56 -155.34,149.25 -54.82,48.74 -112.69,94.43 -170.55,134.01 -60.91,42.65 -118.77,79.19 -182.75,115.73 -60.91,33.5 -124.88,63.95 -191.88,91.36 -63.95,27.41 -130.97,51.78 -197.96,73.1 -127.93,27.41 -258.89,79.19 -371.58,88.32 -24.37,0 -51.78,6.09 -76.15,9.13 -27.41,6.09 -51.78,12.2 -76.15,18.28 -24.37,9.13 -48.74,18.28 -73.1,27.41 -24.37,9.13 -48.74,21.33 -73.1,33.5 -21.33,15.24 -45.69,27.41 -67.02,42.65 -21.33,15.24 -42.65,33.5 -60.91,51.78 -21.33,15.24 -42.65,36.54 -60.91,54.82 -18.28,21.33 -36.54,39.61 -51.78,60.91 -15.24,24.37 -33.5,45.69 -45.69,70.06 -15.24,21.33 -30.45,45.69 -42.65,70.06 -12.2,27.41 -24.37,51.78 -33.5,79.19 -9.13,24.37 -18.28,51.78 -27.41,79.19 -6.09,24.37 -12.2,48.74 -15.24,73.1 0,3.04 -3.04,6.09 -3.04,9.13 -6.09,27.41 -6.09,63.95 -9.13,82.23 -3.04,21.33 -6.09,39.58 -6.09,60.91 0,12.2 0,27.41 3.04,39.58 3.04,21.33 6.09,39.61 12.2,57.86 6.09,18.28 12.2,36.54 21.33,54.82 0,3.04 0,3.04 0,3.04 9.13,18.28 21.33,36.54 33.5,54.82 12.2,18.28 24.37,36.54 39.61,54.82 15.24,15.24 33.5,33.5 51.78,48.74 18.28,18.28 36.54,33.5 57.86,48.74 73.1,63.95 91.36,85.28 185.79,134.01 15.24,9.13 30.45,15.24 48.74,24.37 3.04,0 6.09,3.04 9.13,3.04 0,6.09 0,9.13 3.04,15.24 3.04,24.37 9.13,48.74 15.24,73.1 6.09,27.41 15.24,51.78 24.37,73.1 9.13,18.28 15.24,36.54 24.37,54.82 3.04,6.09 6.09,12.2 9.13,15.24 12.2,24.37 24.37,45.69 36.54,67.02 15.24,21.33 30.45,42.65 45.69,63.95 15.24,18.28 33.5,39.58 51.78,57.86 18.28,18.28 36.54,33.5 57.86,51.78 0,0 3.04,3.04 6.09,3.04 18.28,15.24 36.54,30.45 54.82,42.65 21.33,15.24 42.65,27.41 67.02,39.61 21.33,12.2 45.69,24.37 70.06,33.5 18.28,9.13 39.58,15.24 60.91,21.33 3.04,3.04 6.09,3.04 12.2,6.09 12.2,3.04 27.41,6.09 39.58,9.13 -9.13,164.47 -12.2,319.8 12.2,374.62 27.41,60.91 161.42,-124.88 295.43,-338.08 -18.28,210.16 -30.45,456.86 0,529.96 33.5,76.15 216.24,-161.42 374.62,-423.36 2159.45,-499.51 4130.04,992.92 4337.15,3100.56 -39.61,-328.93 -444.68,-511.68 -630.47,-466.01 -91.39,225.37 -246.7,514.72 -496.46,694.43 21.33,-201.03 12.2,-408.12 -30.45,-609.15 -67.02,280.22 -197.99,542.16 -377.67,767.53 -289.35,21.33 -578.7,-118.8 -730.99,-328.93 -12.2,-9.13 -15.24,-27.41 -24.37,-39.58 -9.13,-21.33 -18.28,-42.65 -24.37,-63.95 -9.13,-21.33 -15.24,-42.65 -18.28,-63.95 -3.04,-21.33 -3.04,-42.65 -3.04,-67.02 0,-15.24 0,-30.45 0,-45.69 3.04,-21.33 9.13,-42.65 15.24,-63.98 6.09,-21.33 12.2,-42.65 21.33,-63.95 12.2,-21.33 21.33,-42.65 36.54,-63.95 51.78,-146.21 51.78,-264.98 -42.65,-335.04 -18.28,-12.2 -36.54,-21.33 -57.86,-30.45 -12.2,-3.04 -27.41,-9.13 -39.58,-12.2 -9.13,-3.04 -15.24,-6.09 -24.37,-9.13 -21.33,-6.09 -42.65,-12.2 -63.95,-15.24 -21.33,-6.09 -42.65,-9.13 -63.95,-9.13 -21.33,-3.04 -45.69,-6.09 -67.02,-6.09 -15.24,0 -30.45,3.04 -45.69,3.04 -24.37,0 -45.69,3.04 -67.02,9.13 -21.33,3.04 -42.65,6.09 -63.95,12.2 -21.33,6.09 -42.65,12.2 -63.95,21.33 -21.33,9.13 -39.58,18.28 -60.91,27.41 -18.28,9.13 -36.54,21.33 -57.86,30.45 -709.67,462.94 -286.31,1547.23 197.96,1860.95 -182.75,33.5 -368.54,73.1 -420.32,112.69 -3.04,3.04 -6.09,6.09 -6.09,6.09 130.97,79.19 268.02,146.21 411.16,204.07 194.92,63.95 402.03,121.84 493.42,146.21l0 3.04c252.81,51.78 508.64,70.06 767.53,54.82 1349.27,-94.43 2454.87,-1120.83 2655.88,-2473.14 6.09,27.41 12.2,51.78 18.28,79.19 9.13,54.82 21.33,112.69 27.41,170.55 0,0 0,0 0,3.04 6.09,27.41 9.13,54.82 12.2,79.19 0,6.09 0,9.13 0,12.2 3.04,27.41 6.09,54.82 6.09,79.19 3.04,33.5 6.09,67.02 6.09,100.52 0,15.24 0,30.45 0,48.74 0,15.24 3.04,33.5 3.04,48.74 0,18.28 -3.04,36.54 -3.04,54.82 0,15.24 0,30.45 0,42.65 0,21.33 -3.04,39.61 -3.04,60.91 0,12.2 0,24.37 -3.04,39.61 0,21.33 -3.04,42.65 -3.04,67.02 -3.04,9.13 -3.04,18.28 -3.04,27.41 -3.04,24.37 -6.09,45.69 -9.13,70.06 0,9.13 0,18.28 -3.04,27.41 -3.04,30.45 -9.13,57.86 -12.2,88.32l0 3.04 0 3.04c-6.09,27.41 -12.2,57.86 -18.28,85.28 0,3.04 0,6.09 0,9.13 -6.09,27.41 -12.2,54.82 -18.28,82.23 0,3.04 -3.04,9.13 -3.04,12.2 -6.09,27.41 -12.2,54.82 -21.33,82.23 0,3.04 0,6.09 0,9.13 -9.13,30.45 -18.28,57.86 -24.37,85.28 -3.04,3.04 -3.04,6.09 -3.04,6.09 -9.13,30.45 -18.28,60.91 -27.41,91.36 -12.2,30.45 -21.33,57.86 -33.5,88.32 -12.2,30.45 -21.33,60.91 -33.5,88.32 -12.2,30.45 -24.37,57.86 -36.54,88.32l-3.03 -0.04c-12.2,27.41 -24.37,57.86 -39.61,85.28l0 0 0 0c-3.04,9.13 -6.09,15.24 -9.13,21.33 -3.04,3.04 -3.04,6.09 -6.09,9.13 -197.96,398.99 -490.38,749.25 -855.85,1023.38 -24.37,15.24 -48.74,33.5 -73.1,51.78l0 0c-6.09,6.09 -15.23,9.13 -21.32,15.24 -21.33,15.24 -42.65,30.45 -67.02,45.69l9.13 18.28 3.05 0c42.65,-6.09 85.27,-12.2 127.92,-18.28l3.04 0c79.19,-12.2 158.38,-27.41 237.57,-42.65 21.33,-3.04 45.69,-9.13 66.99,-15.24 15.24,-3.04 27.41,-6.09 42.65,-9.13 21.33,-3.04 42.65,-9.13 63.95,-12.2 18.28,-6.09 36.54,-9.13 54.82,-15.24 304.59,-73.1 600.02,-173.62 883.26,-292.39 -484.27,660.93 -1133.03,1193.93 -1891.39,1544.19 350.26,-24.37 700.53,-82.23 1038.59,-179.71 1227.43,-362.45 2259.94,-1187.85 2878.24,-2299.55 -124.88,703.58 -405.08,1373.64 -819.31,1958.42 295.43,-194.92 566.5,-420.32 813.22,-676.17 682.25,-712.71 1129.98,-1617.29 1282.25,-2588.9 103.56,481.22 134.01,977.69 88.32,1468.07 2199.03,-3067.08 182.75,-6246.83 -660.93,-7084.42 -3.04,-6.09 -6.09,-9.13 -6.09,-15.24 -3.04,3.04 -3.04,3.04 -3.04,6.09 0,-3.04 0,-3.04 -3.04,-6.09 0,36.54 -3.04,73.1 -6.09,109.64 -9.13,70.06 -18.28,137.05 -30.45,204.07 -15.24,67.02 -33.5,134.01 -51.78,201.03 -21.33,63.95 -45.69,130.97 -73.1,194.92 -27.41,60.91 -57.86,124.88 -91.36,185.79 -33.5,57.86 -70.06,118.77 -109.64,173.62 -39.58,57.86 -82.23,112.69 -124.88,164.47 -45.69,54.82 -94.43,103.56 -143.14,152.29 -30.45,27.41 -57.86,51.78 -88.32,76.15 -24.37,21.33 -45.69,39.61 -70.06,60.91 -54.82,42.65 -109.64,82.23 -170.55,118.8 -57.86,36.54 -118.77,73.1 -179.71,103.56 -63.95,30.45 -127.93,57.86 -191.88,85.28 -63.95,24.37 -130.97,45.69 -197.99,63.95 -67.02,18.28 -137.05,33.5 -204.07,45.69 -70.06,12.2 -140.1,18.28 -207.12,24.37 -48.74,3.04 -97.47,6.09 -146.21,6.09 -70.06,0 -140.1,-6.09 -207.12,-12.2 -70.06,-6.09 -140.1,-15.24 -207.12,-30.45 -70.06,-12.2 -137.05,-30.45 -204.07,-51.78l-3.03 -0.01c67.02,-6.09 134.01,-12.2 201.03,-24.37 70.06,-12.2 137.05,-27.41 204.07,-45.69 66.99,-18.28 134.01,-39.61 197.96,-63.95 67.02,-24.37 130.97,-54.82 191.88,-85.28 63.95,-30.45 121.84,-63.95 182.75,-100.52 57.86,-39.58 115.73,-79.19 170.55,-121.84 54.82,-42.65 106.6,-88.32 155.34,-137.05 51.78,-45.69 97.47,-97.47 143.14,-149.25 45.69,-54.82 88.32,-109.64 127.93,-164.47 6.09,-9.13 12.2,-21.33 18.28,-30.45 30.45,-48.74 60.91,-97.47 88.32,-146.21 33.5,-60.91 63.95,-121.84 91.36,-185.79 27.41,-63.95 51.78,-127.93 73.1,-194.92 21.33,-63.95 36.54,-130.97 51.78,-197.96 12.2,-70.06 24.37,-137.05 30.45,-204.07 6.09,-70.06 12.2,-140.1 12.2,-207.12 0,-48.74 -3.04,-97.47 -6.09,-146.21 -6.09,-70.06 -15.24,-137.05 -24.37,-204.07 -12.2,-70.06 -27.41,-137.05 -45.69,-204.07 -21.33,-63.95 -42.65,-130.97 -67.02,-194.92 -24.37,-63.95 -54.82,-127.93 -85.28,-188.83 -33.5,-60.91 -67.02,-121.84 -103.56,-179.71 -39.58,-57.86 -79.19,-112.69 -121.84,-167.51 -45.69,-51.78 -91.36,-103.56 -140.1,-155.34 -24.37,-24.37 -51.78,-51.78 -79.19,-76.15 -137.05,-106.6 -280.22,-207.12 -423.36,-298.48 -21.33,-12.2 -39.58,-21.33 -60.91,-30.45 -100.45,-63.93 -194.85,-97.46 -289.28,-127.91l0 0z"/>
  </g>
 </g>
</svg>
