<?xml version="1.0" encoding="UTF-8"?>
<!DOCTYPE svg PUBLIC "-//W3C//DTD SVG 1.1//EN" "http://www.w3.org/Graphics/SVG/1.1/DTD/svg11.dtd">
<!-- Creator: CorelDRAW -->
<svg xmlns="http://www.w3.org/2000/svg" xml:space="preserve" width="100%" height="100%" version="1.1" style="shape-rendering:geometricPrecision; text-rendering:geometricPrecision; image-rendering:optimizeQuality; fill-rule:evenodd; clip-rule:evenodd"
viewBox="0 0 10583.34 11925.4"
 xmlns:xlink="http://www.w3.org/1999/xlink"
 xmlns:xodm="http://www.corel.com/coreldraw/odm/2003">
 <defs>
  <style type="text/css">
   <![CDATA[
    .fil0 {fill:#539E43;fill-rule:nonzero}
   ]]>
  </style>
 </defs>
 <g id="Слой_x0020_1">
  <metadata id="CorelCorpID_0Corel-Layer"/>
  <g id="_105553225622016">
   <path class="fil0" d="M5291.67 11925.4c-164.33,0 -317.71,-43.82 -460.14,-120.52l-1457.11 -865.51c-219.13,-120.52 -109.56,-164.33 -43.82,-186.24 295.8,-98.61 350.6,-120.52 657.36,-295.8 32.86,-21.91 76.7,-10.95 109.56,10.95l1117.49 668.31c43.82,21.91 98.61,21.91 131.47,0l4371.37 -2530.79c43.82,-21.91 65.72,-65.72 65.72,-120.52l0 -5050.63c0,-54.77 -21.91,-98.61 -65.72,-120.52l-4371.41 -2519.85c-43.82,-21.91 -98.61,-21.91 -131.47,0l-4371.37 2519.83c-43.82,21.91 -65.72,76.7 -65.72,120.52l0 5050.63c0,43.82 21.91,98.61 65.72,120.52l1194.2 690.22c646.4,328.67 1051.77,-54.77 1051.77,-438.23l0 -4984.91c0,-65.72 54.77,-131.47 131.47,-131.47l558.75 0c65.72,0 131.47,54.77 131.47,131.47l0 4984.91c0,865.51 -471.09,1369.48 -1292.78,1369.48 -251.99,0 -449.18,0 -1007.93,-273.9l-1150.36 -657.36c-284.9,-164.32 -460.19,-471.08 -460.19,-799.75l0 -5050.63c0,-328.67 175.29,-635.45 460.14,-799.78l4371.37 -2530.79c273.9,-153.38 646.4,-153.38 920.3,0l4371.37 2530.79c284.87,164.33 460.16,471.09 460.16,799.76l0 5050.63c0,328.67 -175.29,635.45 -460.14,799.78l-4371.37 2530.79c-142.45,65.75 -306.78,98.61 -460.16,98.61l0 0zm1347.58 -3473c-1917.28,0 -2311.69,-876.46 -2311.69,-1621.47 0,-65.72 54.77,-131.47 131.47,-131.47l569.7 0c65.72,0 120.52,43.82 120.52,109.56 87.66,580.65 339.62,865.51 1500.95,865.51 920.3,0 1314.69,-208.17 1314.69,-701.17 0,-284.85 -109.56,-493.02 -1544.77,-635.45 -1194.2,-120.52 -1939.18,-383.46 -1939.18,-1336.62 0,-887.41 744.99,-1413.3 1993.95,-1413.3 1402.34,0 2092.56,482.04 2180.22,1533.82 0,32.86 -10.95,65.72 -32.86,98.61 -21.91,21.91 -54.77,43.82 -87.66,43.82l-569.7 -0.01c-54.77,0 -109.56,-43.82 -120.52,-98.61 -131.47,-602.56 -471.09,-799.78 -1369.48,-799.78 -1007.93,0 -1128.45,350.6 -1128.45,613.52 0,317.71 142.43,416.32 1500.95,591.61 1347.58,175.29 1983,427.28 1983,1369.48 -10.95,964.16 -799.75,1511.95 -2191.14,1511.95l0 0z"/>
  </g>
 </g>
</svg>
