<svg id="Layer_1" data-name="Layer 1" xmlns="http://www.w3.org/2000/svg" viewBox="0 0 483.54 498.59"><defs><style>.cls-1{fill:#336791;}.cls-2{fill:#fff;}</style></defs><path d="M619.73,613.54c3.18-26.42,2.23-30.29,21.91-26l5,.44c15.13.69,34.93-2.44,46.56-7.84,25-11.62,39.88-31,15.19-25.91-56.31,11.61-60.18-7.46-60.18-7.46,59.46-88.22,84.32-200.21,62.86-227.62-58.51-74.77-159.81-39.41-161.5-38.49l-.54.1a201,201,0,0,0-37.57-3.92c-25.48-.42-44.81,6.68-59.48,17.81,0,0-180.7-74.45-172.29,93.62C281.46,424,330.92,658.8,389.92,587.88,411.48,562,432.31,540,432.31,540A54.73,54.73,0,0,0,468,549.15l1-.86a39.31,39.31,0,0,0,.41,10.1c-15.2,17-10.73,20-41.12,26.21-30.74,6.34-12.68,17.62-.89,20.56,14.3,3.58,47.36,8.64,69.71-22.64l-.89,3.57c6,4.77,5.56,34.28,6.41,55.36s2.25,40.77,6.55,52.37,9.37,41.47,49.3,32.92c33.37-7.15,58.89-17.45,61.21-113.2" transform="translate(-258.46 -250.56)"/><path d="M545.5,749.16c-18.15,0-30-7-37.21-13.86-10.83-10.22-15.09-23.27-17.64-31.07-.4-1.23-.77-2.38-1.06-3.14-5.1-13.77-6.82-33.47-7.84-58.8-.15-3.79-.27-7.87-.38-11.83-.06-2.4-.14-5.3-.25-8.39a78.27,78.27,0,0,1-18.32,5.48c-12.66,2.16-26.27,1.46-40.44-2.08-9.6-2.4-19.56-7.26-25.75-14.71-17.11,14.22-33.36,12.13-42.31,9.15-16-5.33-30.22-20.18-43.53-45.39-9.38-17.78-18.45-40.93-27-68.8-14.8-48.48-24.2-99.61-25-116.41-2.65-52.93,11.67-90.82,42.54-112.64,25.5-18,60.36-23.54,103.62-16.44a286.28,286.28,0,0,1,44.23,11.1c17.93-10.63,38.94-15.81,62.64-15.43a229.81,229.81,0,0,1,36,3.29,210,210,0,0,1,61.49-8.61c49.35.59,90.26,19.83,118.3,55.66,19.19,24.52,12.06,72.89,2.69,109.14C719.75,456,701.53,499.16,679.11,537a145.76,145.76,0,0,0,25-3.3,46.68,46.68,0,0,1,16.26-.9c9.84,1.48,17.46,7.61,20.36,16.41,2.54,7.67,2.38,19.66-12.76,33.22a108.47,108.47,0,0,1-26,16.68c-14.22,6.6-37.38,10.62-56.32,9.76l-.88-.06-3.4-.3c-.1.86-.2,1.73-.3,2.58-.15,1.25-.3,2.57-.47,3.95-1.26,48.81-8.29,79.78-22.73,100.35-15.28,21.75-36.4,27.82-55,31.8A82.62,82.62,0,0,1,545.5,749.16ZM509.34,569.75c11.95,9.55,13,27,13.88,59.55.11,4,.22,7.78.36,11.32.43,10.64,1.43,35.56,5.27,45.92.57,1.53,1.07,3.07,1.6,4.7,4.34,13.29,6.14,18.79,23.68,15,15.48-3.32,23.42-6.26,29.51-14.94,9.12-13,14.22-39.32,15.17-78.29l0-1,.12-1c.2-1.69.39-3.29.57-4.79,1.81-15.6,3.24-27.93,14.38-35.88,7-5,14.93-5.69,21.79-5.07a29.3,29.3,0,0,1-8-14.38L626,542.34l4.9-7.27c25.94-38.49,47.36-85.81,58.78-129.83,5-19.43,7.83-37.2,8.09-51.37s-2.18-20.57-3.14-21.83c-46.53-59.45-127.5-35.18-136.41-32.26l-1.53.84-7.83,1.46-4-.84a181.74,181.74,0,0,0-33.65-3.48c-18.88-.31-34.07,4.12-46.5,13.55l-9.55,7.24L444,314c-21.67-8.85-85.26-26.69-118.59-3.08-18.36,13-26.71,38.68-24.83,76.3.65,13,9.5,61.92,24.09,108.94,20,64.61,37.73,82.56,42.76,84,.63-.26,2.86-1.42,6.39-5.67,21.76-26.16,42.45-48,43.32-48.89l12.11-12.75,14.65,9.73a34.39,34.39,0,0,0,16.26,5.77l34.75-29.62-5,51.58a18.23,18.23,0,0,0,.25,4.86l1.52,9.79L485,572.35l-.17.19,16.24,7.5Z" transform="translate(-258.46 -250.56)"/><path class="cls-1" d="M708.39,554.21c-56.32,11.62-60.19-7.45-60.19-7.45,59.46-88.23,84.32-200.22,62.87-227.63-58.52-74.76-159.82-39.4-161.51-38.49l-.54.1a201,201,0,0,0-37.57-3.91c-25.48-.42-44.81,6.68-59.48,17.8,0,0-180.7-74.44-172.3,93.63C281.46,424,330.92,658.8,389.91,587.88,411.47,562,432.31,540,432.31,540A54.63,54.63,0,0,0,468,549.14l1-.85a39.28,39.28,0,0,0,.4,10.1c-15.2,17-10.73,20-41.11,26.21-30.74,6.34-12.68,17.61-.89,20.56,14.29,3.58,47.36,8.64,69.71-22.64l-.89,3.57c5.95,4.77,10.13,31,9.43,54.82s-1.17,40.14,3.52,52.9,9.37,41.48,49.31,32.93c33.37-7.16,50.67-25.69,53.07-56.6,1.71-22,5.57-18.73,5.82-38.38l3.1-9.3c3.57-29.79.56-39.4,21.12-34.93l5,.43c15.13.69,34.94-2.43,46.56-7.83,25-11.62,39.88-31,15.2-25.92Z" transform="translate(-258.46 -250.56)"/><path class="cls-2" d="M547.68,736.16c-12.31,0-22.78-3.58-31.25-10.72-10.31-8.68-15-20.43-17.53-26.74-6.38-16-7.76-75.58-6.31-127.61a7,7,0,0,1,14,.4c-1.62,57.93.67,110.4,5.32,122,7.21,18,18.14,33.79,49,27.17,29.8-6.39,40.4-17.12,45.36-45.92,3.8-22,11.31-84.67,12.24-97a7,7,0,0,1,13.92,1c-1,12.9-8.46,75.51-12.4,98.38-5.89,34.17-21.12,49.67-56.19,57.19A77.2,77.2,0,0,1,547.68,736.16ZM367,607.42a27.56,27.56,0,0,1-8.73-1.45c-21.79-7.27-42.5-42.6-61.56-105-14.47-47.43-23.64-96.95-24.45-113-2.39-47.84,10-81.71,36.7-100.66,52.84-37.43,141.58-1.84,145.33-.31a7,7,0,1,1-5.28,12.92h0c-.84-.34-85.44-34.23-132-1.2-22.57,16-32.94,45.8-30.8,88.56.68,13.51,9.23,61.72,23.86,109.66,16.91,55.41,36.09,90.35,52.63,95.86,2.53.85,10.25,3.42,21.42-10,21.47-25.82,41.18-46.43,41.38-46.64a7,7,0,0,1,10.08,9.66c-.2.2-19.59,20.48-40.73,45.9C384.74,603.84,375,607.42,367,607.42ZM647.8,553.05A7,7,0,0,1,642,542.17c26.87-39.87,49-88.88,60.81-134.47,12.61-48.82,9.14-76.28,2.35-85-22.63-28.91-54.58-44-95-44.91a178.63,178.63,0,0,0-57.72,8.33,6.7,6.7,0,0,1-1,.41,7,7,0,0,1-6-12.57c2.61-1.58,30.09-10.5,63-10.16,45.08.48,82.33,17.88,107.71,50.3,17.12,21.89,5.82,75.17.17,97.06-12.16,47.06-35,97.65-62.74,138.78A7,7,0,0,1,647.8,553.05Z" transform="translate(-258.46 -250.56)"/><path class="cls-2" d="M650.88,594.31c-10.37,0-19.67-1.46-25.25-4.8-5.87-3.52-7-8.32-7.13-10.87-1.53-26.76,12.8-32.06,20.74-34.35-1-1.45-2.34-3.11-3.71-4.82-4.47-5.59-10.59-13.24-15.32-24.71-.73-1.75-3-5.88-5.69-10.65-7.06-12.67-17.74-31.81-24.76-51.46-9.13-25.55-9.28-44.1-.45-56.72,9-12.83,26.7-18,52.74-15.33-3.47-10.29-12.15-29.37-28.17-48.3-18.6-22-51.56-48.36-102.95-49.2-26.11-.43-47.49,7.58-63.56,23.79-36,36.34-34.81,102.47-34.8,103.13a7,7,0,1,1-13.95.37c-.07-2.95-1.43-72.65,38.79-113.28,18.86-19.05,43.67-28.47,73.75-28,56.06.92,92.15,29.42,112.54,53.16,22.24,25.88,33.14,54.47,34,64,.72,7.66-5.16,9.1-5.84,9.24l-2.51.06c-17.58-2.82-40.29-3.66-48.65,8.29-5.87,8.4-5.13,23.62,2.16,44,6.63,18.56,17,37.1,23.81,49.36,3.11,5.59,5.36,9.62,6.4,12.13,4,9.62,9.15,16.1,13.32,21.31,3.7,4.63,6.92,8.64,8.1,13.41.61,1,8.35,11.54,52.06,2.52,11.48-2.37,18.39-.28,20.54,6.21,4.14,12.55-18.72,27-31.39,32.88C684.46,591,666.47,594.31,650.88,594.31Zm-18.48-17c1.7,1.39,8.9,3.63,23.07,3,12.82-.6,26.32-3.41,34.39-7.15a77.24,77.24,0,0,0,19.87-12.83l-.32.07c-28.66,5.91-49,5.1-60.36-2.41-.71-.47-1.36-1-1.95-1.43-1,.33-1.94.61-3,.89C637.7,559.21,631.6,560.92,632.4,577.29Z" transform="translate(-258.46 -250.56)"/><path class="cls-2" d="M447.58,614.12a91.6,91.6,0,0,1-22.23-2.89c-2.22-.55-21.65-5.77-21.39-18.19.24-11.37,16.46-14.71,22.56-16,21.47-4.42,22.86-6.18,29.53-14.65,2-2.51,4.44-5.63,7.79-9.38,11.16-12.49,21.69-8.13,26.19-6.27,7.05,2.92,12.93,10,15.35,18.4,2.18,7.63,1.13,15-2.95,20.7C489.15,604.46,470.13,614.12,447.58,614.12Zm-28.16-20.43a30.68,30.68,0,0,0,9.31,4c18.62,4.66,44.55,5,62.34-19.93,2.11-3,1.46-6.75.89-8.75-1.21-4.23-4.2-8.08-7.27-9.35-3.79-1.57-5.88-2.43-10.44,2.68h0c-3.06,3.42-5.28,6.24-7.23,8.72-8.52,10.81-12.41,14.48-37.67,19.68A45.5,45.5,0,0,0,419.42,593.69Zm49.62-36h0Z" transform="translate(-258.46 -250.56)"/><path class="cls-2" d="M468,564.37a7,7,0,0,1-6.89-5.92c-.14-.93-.24-1.86-.3-2.8-16.4-.43-32.19-7.53-44.21-20.07-15.33-16-22.31-38.16-19.15-60.8,3.41-24.36,2.14-45.88,1.45-57.44-.19-3.22-.33-5.56-.32-7.18,0-2.13.05-7.78,18.44-17.1,6.47-3.28,19.45-9,33.63-10.47,23.66-2.45,39.27,8.1,43.94,29.71,12.48,57.71,1,83.25-7.41,101.9-1.56,3.45-3,6.71-4.19,9.86l-1,2.8c-4.39,11.78-8.19,22-7,29.47a7,7,0,0,1-5.84,8A7.82,7.82,0,0,1,468,564.37ZM412.63,412.19c.05,1.17.14,2.64.24,4.33.71,12,2,34.46-1.56,60.19-2.57,18.39,3.05,36.32,15.4,49.22,9.72,10.14,22.5,15.75,35.64,15.79A181.33,181.33,0,0,1,468.91,522l1-2.78c1.34-3.59,2.9-7.06,4.55-10.73,8-17.82,18-40,6.5-93.22C478.77,405,473.42,399,464.65,397,445.42,392.58,418.45,407,412.63,412.19Z" transform="translate(-258.46 -250.56)"/><path class="cls-2" d="M451,409.2c-.32,2.28,4.18,8.37,10.05,9.19s10.88-3.94,11.2-6.23-4.18-4.79-10-5.61-10.88.37-11.19,2.65Z" transform="translate(-258.46 -250.56)"/><path class="cls-2" d="M462.42,420.81a11.48,11.48,0,0,1-1.66-.12,15.64,15.64,0,0,1-9.95-6.21c-.9-1.19-2.37-3.5-2.08-5.6a4.41,4.41,0,0,1,1.82-2.93c2.33-1.76,6.92-2.41,12-1.7,6.22.86,12.65,3.81,12,8.24-.32,2.29-2.54,4.54-4.52,5.87A13.68,13.68,0,0,1,462.42,420.81Zm-9.05-11.17c.36,1.56,3.7,5.84,8,6.44a9.16,9.16,0,0,0,8.52-4.1c-.5-.74-3.19-2.45-8-3.13S454.11,409.07,453.37,409.64Z" transform="translate(-258.46 -250.56)"/><path class="cls-2" d="M629.51,404.55c.32,2.28-4.17,8.37-10,9.18s-10.88-3.94-11.21-6.22,4.19-4.8,10.06-5.61,10.88.37,11.19,2.65Z" transform="translate(-258.46 -250.56)"/><path class="cls-2" d="M618.15,415c-5.78,0-10.66-4.61-11-7.32-.47-3.47,5.2-6.11,11-6.93s12,.18,12.51,3.65h0c.21,1.56-1,3.95-3,6.1a14.18,14.18,0,0,1-8,4.4A10.48,10.48,0,0,1,618.15,415ZM622,402.8a24.71,24.71,0,0,0-3.47.25c-6.13.85-9.2,3.29-9.06,4.3.22,1.57,4.64,6,9.88,5.23a11.89,11.89,0,0,0,6.67-3.69c1.77-1.86,2.47-3.6,2.39-4.18h0C628.25,403.91,626,402.8,622,402.8Z" transform="translate(-258.46 -250.56)"/><path class="cls-2" d="M638,536.06a7,7,0,0,1-5.79-10.86c13.63-20.36,11.12-41.19,8.7-61.34-1-8.64-2.11-17.58-1.83-26.17a180.91,180.91,0,0,1,2.49-23.16c1.27-8.29,2.48-16.13,2-25.41a7,7,0,0,1,13.94-.75c.57,10.73-.8,19.65-2.13,28.29A170.26,170.26,0,0,0,653,438.13c-.25,7.54.72,15.57,1.74,24.07,2.6,21.61,5.54,46.11-11,70.76A7,7,0,0,1,638,536.06Z" transform="translate(-258.46 -250.56)"/></svg>