<?xml version="1.0" encoding="UTF-8"?>
<!DOCTYPE svg PUBLIC "-//W3C//DTD SVG 1.1//EN" "http://www.w3.org/Graphics/SVG/1.1/DTD/svg11.dtd">
<!-- Creator: CorelDRAW -->
<svg xmlns="http://www.w3.org/2000/svg" xml:space="preserve" width="100%" height="100%" version="1.1" style="shape-rendering:geometricPrecision; text-rendering:geometricPrecision; image-rendering:optimizeQuality; fill-rule:evenodd; clip-rule:evenodd"
viewBox="0 0 10453.94 9301.1"
 xmlns:xlink="http://www.w3.org/1999/xlink"
 xmlns:xodm="http://www.corel.com/coreldraw/odm/2003">
 <defs>
  <style type="text/css">
   <![CDATA[
    .fil0 {fill:#53C1DE;fill-rule:nonzero}
   ]]>
  </style>
 </defs>
 <g id="Слой_x0020_1">
  <metadata id="CorelCorpID_0Corel-Layer"/>
  <path class="fil0" d="M8595.22 3014.63c-108.45,-37.33 -220.82,-72.65 -336.52,-106.05 19.02,-77.6 36.46,-154.23 51.99,-229.53 254.74,-1236.56 88.19,-2232.71 -480.56,-2560.69 -545.36,-314.48 -1437.24,13.41 -2338.02,797.32 -86.62,75.38 -173.49,155.18 -260.3,238.84 -57.86,-55.35 -115.62,-108.82 -173.22,-159.97 -944.02,-838.2 -1890.28,-1191.45 -2458.47,-862.52 -544.83,315.41 -706.2,1251.9 -476.89,2423.8 22.15,113.19 48.02,228.79 77.28,346.31 -133.93,38.02 -263.21,78.55 -386.9,121.66 -1106.78,385.87 -1813.61,990.63 -1813.61,1617.93 0,647.85 758.8,1297.69 1911.59,1691.71 90.96,31.09 185.37,60.48 282.65,88.4 -31.56,127.11 -59.06,251.67 -82.1,373.17 -218.65,1151.55 -47.89,2065.92 495.49,2379.35 561.26,323.66 1503.23,-9.02 2420.45,-810.79 72.5,-63.37 145.26,-130.6 218.15,-201.03 94.48,90.96 188.81,177.09 282.63,257.84 888.44,764.54 1765.94,1073.26 2308.83,758.98 560.71,-324.59 742.95,-1306.86 506.36,-2501.93 -18.07,-91.28 -39.11,-184.52 -62.71,-279.43 66.15,-19.55 131.1,-39.74 194.42,-60.75 1198.43,-397.06 1978.18,-1038.99 1978.18,-1695.49 0,-629.62 -729.64,-1238.46 -1858.72,-1627.13zm-259.93 2898.66c-57.18,18.92 -115.81,37.23 -175.58,54.95 -132.29,-418.84 -310.86,-864.24 -529.38,-1324.36 208.52,-449.18 380.18,-888.87 508.77,-1305 106.94,30.96 210.74,63.58 310.75,98.03 967.4,333.03 1557.47,825.42 1557.47,1204.81 0.03,404.11 -637.27,928.72 -1672.03,1271.57zm-429.34 850.79c104.62,528.45 119.57,1006.21 50.27,1379.72 -62.26,335.62 -187.48,559.38 -342.29,649 -329.46,190.69 -1033.99,-57.18 -1793.8,-711.01 -87.1,-74.96 -174.84,-154.99 -262.86,-239.69 294.56,-322.16 588.96,-696.67 876.27,-1112.63 505.38,-44.85 982.82,-118.16 1415.81,-218.25 21.33,86.02 40.28,170.37 56.6,252.86zm-4341.96 1995.76c-321.87,113.67 -578.25,116.92 -733.21,27.57 -329.75,-190.18 -466.83,-924.35 -279.85,-1909.15 21.4,-112.79 46.91,-228.63 76.28,-347.05 428.25,94.69 902.2,162.82 1408.77,203.91 289.27,407.01 592.16,781.13 897.4,1108.68 -66.69,64.37 -133.1,125.68 -199.17,183.44 -405.57,354.53 -812.02,606.07 -1170.22,732.6zm-1507.96 -2849.01c-509.75,-174.23 -930.7,-400.66 -1219.25,-647.75 -259.29,-222.04 -390.18,-442.48 -390.18,-621.36 0,-380.66 567.53,-866.19 1514.05,-1196.21 114.86,-40.03 235.08,-77.79 359.83,-113.24 130.81,425.53 302.42,870.43 509.51,1320.3 -209.76,456.56 -383.8,908.54 -515.91,1339.05 -88.96,-25.57 -175.13,-52.48 -258.05,-80.79zm505.48 -3440.76c-196.45,-1004.04 -65.99,-1761.46 262.36,-1951.51 349.73,-202.46 1123.1,86.2 1938.21,809.97 52.1,46.25 104.4,94.67 156.87,144.78 -303.74,326.15 -603.86,697.44 -890.56,1102.04 -491.65,45.56 -962.29,118.77 -1394.99,216.8 -27.23,-109.47 -51.33,-216.99 -71.89,-322.08zm4509.34 1113.47c-103.45,-178.67 -209.63,-353.11 -317.9,-522.82 333.53,42.17 653.12,98.13 953.21,166.63 -90.09,288.77 -202.41,590.68 -334.59,900.17 -94.8,-180.02 -195.1,-361.55 -300.72,-543.98zm-1838.91 -1791.1c205.98,223.18 412.27,472.33 615.18,742.66 -204.47,-9.66 -411.45,-14.68 -620.16,-14.68 -206.75,0 -412.18,4.92 -615.38,14.39 203.1,-267.81 411.16,-516.65 620.36,-742.37zm-1850.67 1794.17c-103.32,179.18 -201.77,359.7 -295.09,540.57 -130.04,-308.42 -241.3,-611.72 -332.18,-904.56 298.26,-66.75 616.32,-121.31 947.76,-162.69 -109.78,171.24 -216.85,346.97 -320.46,526.63l0 0.05 -0.03 0zm330.02 2668.71c-342.42,-38.21 -665.27,-89.96 -963.45,-154.89 92.34,-298.08 206.06,-607.85 338.85,-922.92 93.58,180.74 192.41,361.34 296.36,540.91l0.02 0c105.89,182.96 215.61,362.14 328.22,536.9zm1533.01 1267.14c-211.67,-228.36 -422.77,-480.99 -628.98,-752.71 200.16,7.86 404.22,11.88 611.63,11.88 213.07,0 423.73,-4.79 631.06,-14.02 -203.55,276.59 -409.11,529.58 -613.71,754.85zm2131.56 -2360.98c139.73,318.48 257.52,626.61 351.05,919.61 -303.11,69.14 -630.37,124.83 -975.17,166.21 108.53,-171.98 215.64,-349.41 320.91,-531.94 106.49,-184.66 207.59,-369.6 303.21,-553.88zm-690.06 330.78c-163.41,283.34 -331.18,553.83 -501.49,809.15 -310.22,22.17 -630.69,33.6 -957.34,33.6 -325.32,0 -641.76,-10.11 -946.48,-29.87 -177.19,-258.66 -348.59,-529.96 -510.96,-810.42l0.02 0c-161.95,-279.72 -310.99,-561.78 -446.06,-842.26 135.02,-281.15 283.69,-563.54 444.69,-842.75l-0.03 0.05c161.45,-279.96 331.34,-549.91 506.89,-806.98 310.91,-23.5 629.71,-35.77 951.88,-35.77l0.02 0c323.64,0 642.86,12.36 953.66,36.06 172.88,255.16 341.63,524.25 503.69,804.25 163.91,283.13 314.48,563.64 450.66,838.76 -135.72,279.85 -285.95,563.18 -449.15,846.18zm921.25 -4987.02c350.07,201.88 486.2,1016.05 266.25,2083.67 -14.02,68.13 -29.82,137.5 -46.99,207.83 -433.71,-100.07 -904.69,-174.55 -1397.77,-220.79 -287.26,-409.05 -584.91,-780.94 -883.71,-1102.89 80.33,-77.28 160.55,-150.97 240.43,-220.5 771.82,-671.65 1493.16,-936.84 1821.79,-747.32z"/>
 </g>
</svg>
