<?xml version="1.0" encoding="UTF-8"?>
<!DOCTYPE svg PUBLIC "-//W3C//DTD SVG 1.1//EN" "http://www.w3.org/Graphics/SVG/1.1/DTD/svg11.dtd">
<!-- Creator: CorelDRAW -->
<svg xmlns="http://www.w3.org/2000/svg" xml:space="preserve" width="100%" height="100%" version="1.1" style="shape-rendering:geometricPrecision; text-rendering:geometricPrecision; image-rendering:optimizeQuality; fill-rule:evenodd; clip-rule:evenodd"
viewBox="0 0 11014.32 13229.21"
 xmlns:xlink="http://www.w3.org/1999/xlink"
 xmlns:xodm="http://www.corel.com/coreldraw/odm/2003">
 <defs>
  <style type="text/css">
   <![CDATA[
    .fil0 {fill:#FF3E00;fill-rule:nonzero}
    .fil1 {fill:white;fill-rule:nonzero}
   ]]>
  </style>
 </defs>
 <g id="Слой_x0020_1">
  <metadata id="CorelCorpID_0Corel-Layer"/>
  <g id="_105553226017824">
   <g>
    <path class="fil0" d="M10312.24 1750.34c-1229.09,-1758.18 -3656.8,-2279.33 -5411.88,-1161.52l-3082.24 1963.76c-207.35,130.28 -400.79,281.78 -576.79,452.01 -176.21,170.26 -334.12,358.4 -471.22,561.34 -137.13,202.94 -252.84,419.55 -345.36,646.35 -92.29,226.88 -160.81,462.73 -204.47,703.77 -36.43,202.06 -56.3,406.98 -58.95,612.33 -2.88,205.58 11.48,410.95 42.62,613.89 31.14,203.15 79.06,403.44 143.09,598.65 64.03,195.21 144.2,384.68 239.58,566.63 -65.62,99.72 -126.21,202.7 -181.5,308.48 -55.43,105.78 -105.33,214.42 -149.73,325.28 -44.4,110.86 -83.03,223.92 -115.94,338.75 -32.91,114.83 -59.85,231.19 -81.04,348.67 -88.08,494 -76.44,1000.64 34.24,1490.1 55.19,244 134.49,482.04 236.93,710.38 102.47,228.34 227.22,446.06 372.96,649.66 1229.1,1758.18 3656.59,2279.33 5411.68,1161.52l3082.24 -1955.59c207.34,-130.49 400.33,-282.2 576.33,-452.68 175.97,-170.34 333.82,-358.46 471.01,-561.34 137.13,-202.72 252.84,-419.33 345.36,-646.1 92.52,-226.56 161.21,-462.41 205.13,-703.32 36.43,-202.06 56.09,-406.74 58.74,-612.11 2.65,-205.37 -11.69,-410.74 -43.07,-613.67 -31.14,-202.94 -79.06,-402.99 -143.32,-598.2 -64.27,-195 -144.41,-384.44 -239.82,-566.42 65.59,-99.59 126.31,-202.72 181.74,-308.48 55.19,-105.78 105.33,-214.42 149.73,-325.28 44.4,-110.86 83.24,-223.92 116.36,-338.75 32.91,-114.62 60.27,-230.98 81.7,-348.46 43.74,-246.43 62.71,-496.62 56.96,-746.81 -5.74,-250.19 -36.43,-499.06 -91.65,-743.29 -55.19,-244 -134.49,-482.04 -236.93,-710.38 -102.34,-228.36 -227.12,-445.98 -372.53,-649.66l0.04 -9.51zm0 0l0 0 0 0z"/>
   </g>
   <path class="fil1" d="M4599.16 11648.87c-241.22,62.68 -490.62,88.13 -739.54,75.51 -248.87,-12.81 -494.43,-63.16 -728.05,-149.94 -233.63,-86.65 -452.7,-208.39 -649.66,-361.05 -196.8,-152.74 -369.17,-334.59 -511.2,-539.25 -87.66,-122.56 -162.75,-253.29 -224.13,-390.63 -61.57,-137.27 -109.27,-280.33 -142.43,-427.06 -32.91,-146.84 -51.46,-296.57 -54.77,-446.93 -3.31,-150.38 8.39,-300.74 34.9,-448.91 4.21,-24.08 9.05,-48.13 14.34,-71.99 5.08,-24.08 10.82,-47.92 17.01,-71.54 5.95,-23.84 12.59,-47.47 19.66,-71.09 6.85,-23.42 14.34,-46.8 22.09,-70.01l58.08 -177.32 158.33 118.14c90.75,66.25 184.39,128.75 280.43,187.03 96.04,58.53 194.55,112.84 295.25,162.75 100.46,50.14 203.39,96.04 307.82,137.35 104.46,41.51 210.66,78.4 318.43,110.86l118.14 34.24 -10.61 118.13c-5.69,80.41 2.67,161.18 24.74,238.71 10.82,38.87 25.16,76.41 42.62,112.61 17.44,36.22 37.99,70.88 61.38,103.56 42.89,61.65 94.93,116.36 154.36,162.3 59.19,45.93 125.2,82.58 195.66,108.64 70.46,26.06 144.2,41.06 219.29,44.82 74.85,3.97 149.94,-3.76 222.59,-22.75 16.77,-4.42 33.13,-9.5 49.48,-15.24 16.35,-5.74 32.46,-11.93 48.13,-19 15.9,-6.85 31.35,-14.34 46.8,-22.52 15.24,-7.94 30.03,-16.56 44.61,-25.85l3077.58 -1963.97c37.73,-23.65 72.89,-51.2 104.88,-82.15 32.01,-31.14 60.51,-65.35 85.46,-102.24 24.95,-36.89 45.72,-76.41 62.49,-117.69 16.56,-41.3 28.92,-84.14 36.88,-127.85 7.73,-44.82 11.03,-90.09 9.95,-135.57 -1.11,-45.27 -6.85,-90.33 -17.01,-134.7 -9.95,-44.16 -24.5,-87.23 -43.29,-128.75 -18.55,-41.3 -41.51,-80.59 -68.02,-117.48 -42.84,-61.62 -94.72,-116.15 -154.15,-162.08 -59.4,-45.93 -125.41,-82.58 -195.66,-108.64 -70.38,-26.06 -144.33,-41.25 -219.29,-45.06 -75.09,-3.76 -150.15,3.97 -222.81,22.75 -16.56,4.42 -33.13,9.5 -49.48,15.24 -16.35,5.74 -32.25,11.93 -48.13,18.76 -15.9,7.06 -31.35,14.58 -46.59,22.75 -15.24,7.94 -30.24,16.77 -44.82,26.06l-1181.84 750.36c-48.13,30.48 -97.6,59.19 -147.96,86.12 -50.56,26.72 -101.81,51.67 -154.15,74.64 -52.34,22.97 -105.54,43.95 -159.44,62.71 -53.87,19 -108.43,35.77 -163.62,50.56 -240.93,62.28 -489.77,87.44 -738.21,74.64 -248.42,-12.81 -493.32,-63.37 -726.49,-149.73 -233.18,-86.57 -451.8,-208.23 -648.34,-360.6 -196.53,-152.37 -368.78,-333.67 -510.75,-537.92 -87.23,-122.56 -162.08,-253.5 -223.26,-390.84 -61.38,-137.35 -108.88,-280.43 -141.76,-427.06 -32.91,-146.84 -51.01,-296.57 -54.11,-446.93 -3.31,-150.15 8.39,-300.54 35.11,-448.5 52.2,-291.31 164.57,-568.51 329.91,-813.94 165.44,-245.43 380.34,-453.63 630.9,-611.24l3087.08 -1963.76c47.92,-30.48 96.94,-59.19 147.06,-86.12 50.14,-26.72 101.36,-51.67 153.25,-74.64 52.02,-22.97 104.91,-43.89 158.54,-62.71 53.45,-19 107.76,-35.98 162.75,-50.8 241.14,-62.49 490.43,-88.11 739.09,-75.51 248.87,12.81 494.19,63.16 727.82,149.94 233.63,86.57 452.46,208.47 649.45,361.05 196.72,152.85 369.04,334.75 510.99,539.46 87.44,122.34 162.75,253.07 224.37,390.42 61.61,137.35 109.29,280.22 142.65,427.06 33.13,146.84 51.67,296.57 54.98,446.93 3.55,150.39 -7.94,300.75 -34.45,448.92 -4.63,24.29 -9.5,48.58 -15.03,72.65 -5.29,24.08 -11.03,48.13 -17.22,71.99 -5.95,24.08 -12.59,47.92 -19.42,71.54 -6.85,23.84 -13.92,47.47 -21.64,70.88l-58.95 177.32 -157.21 -118.14c-90.99,-66.91 -184.84,-129.62 -281.12,-188.57 -96.28,-58.74 -195.21,-113.51 -296.12,-164.07 -202.04,-100.78 -412.19,-184.41 -628.23,-249.98l-118.35 -34.24 10.82 -118.14c3.31,-40.4 3.1,-81.04 -0.66,-121.23 -3.55,-40.19 -10.82,-80.17 -21.43,-119.25 -10.82,-38.87 -24.74,-77.07 -42.17,-113.51 -17.22,-36.64 -37.76,-71.54 -61.17,-104.67 -43.07,-60.51 -95.14,-114.14 -154.36,-158.99 -59.13,-45.06 -124.8,-80.8 -194.76,-105.99 -140.55,-50.99 -293.32,-57.84 -437.89,-19.66 -16.77,4.42 -33.34,9.5 -49.48,15.03 -16.35,5.74 -32.46,12.14 -48.37,19 -15.69,6.85 -31.35,14.58 -46.59,22.52 -15.24,8.18 -30.24,16.77 -44.82,26.06l-3083.32 1960.46c-37.54,23.63 -72.65,51.22 -104.46,82.15 -31.8,30.9 -60.51,65.14 -85.46,101.81 -24.74,36.88 -45.69,76.15 -62.49,117.26 -16.77,41.3 -29.16,83.93 -37.09,127.64 -7.73,44.82 -11.03,90.33 -9.95,135.81 2.65,91.04 23.12,180.71 60.27,263.9 18.73,41.41 41.43,80.88 67.79,117.92 42.62,60.93 94.3,115.28 153.25,160.76 58.84,45.69 124.27,82.18 194.1,108.21 140.39,52.2 293.29,60.59 438.55,24.08 16.56,-4.63 33.13,-9.71 49.48,-15.45 16.11,-5.74 32.25,-12.14 48.13,-19 15.82,-6.88 31.38,-14.39 46.59,-22.52 15.24,-7.94 30.24,-16.56 44.82,-25.82l1181.84 -749.04c48.37,-30.9 97.6,-60.06 148.17,-87 50.35,-27.17 101.81,-52.12 154.36,-75.3 52.39,-22.97 105.65,-43.89 159.65,-62.71 54.11,-19 108.88,-35.77 164.28,-50.35 241.14,-62.71 490.22,-88.32 739.09,-75.96 248.87,12.59 494.19,62.94 727.82,149.49 233.42,86.57 452.46,208.23 649.21,361.05 196.98,152.59 369.23,334.33 511.2,539.04 87.44,122.56 162.53,253.29 224.13,390.63 61.6,137.27 109.38,280.33 142.64,427.06 33.13,146.63 51.66,296.33 55.21,446.72 3.55,150.6 -8.17,300.99 -34.44,448.92 -26.04,145.26 -67.1,287.42 -122.56,424.21 -55.4,136.82 -124.96,267.44 -207.57,389.76 -82.36,122.34 -177.32,235.85 -283.32,338.51 -105.99,102.68 -222.36,194.09 -347.35,272.7l-3083.56 1963.76c-48.37,30.69 -97.82,59.61 -148.17,86.57 -50.56,26.93 -102.02,51.88 -154.57,74.85 -52.33,23.18 -105.54,44.16 -159.65,63.16 -53.78,18.93 -108.55,35.92 -163.76,50.71z"/>
  </g>
 </g>
</svg>
