<?xml version="1.0" encoding="UTF-8"?>
<!DOCTYPE svg PUBLIC "-//W3C//DTD SVG 1.1//EN" "http://www.w3.org/Graphics/SVG/1.1/DTD/svg11.dtd">
<!-- Creator: CorelDRAW -->
<svg xmlns="http://www.w3.org/2000/svg" xml:space="preserve" width="100%" height="100%" version="1.1" style="shape-rendering:geometricPrecision; text-rendering:geometricPrecision; image-rendering:optimizeQuality; fill-rule:evenodd; clip-rule:evenodd"
viewBox="0 0 11906.24 2695.26"
 xmlns:xlink="http://www.w3.org/1999/xlink"
 xmlns:xodm="http://www.corel.com/coreldraw/odm/2003">
 <defs>
  <style type="text/css">
   <![CDATA[
    .fil0 {fill:none;fill-rule:nonzero}
   ]]>
  </style>
 </defs>
 <g id="Слой_x0020_1">
  <metadata id="CorelCorpID_0Corel-Layer"/>
  <g id="_105553289368576">
   <path fill="currentColor" d="M5939.65 673.82c-464.93,0 -800.15,303.21 -800.15,758.03 0,454.82 377.32,758.03 842.27,758.03 280.91,0 528.53,-111.18 681.8,-298.58l-322.16 -186.13c-85.06,93.08 -214.37,147.4 -359.65,147.4 -201.72,0 -373.12,-105.28 -436.72,-273.74l1180.03 -0.01c9.26,-47.18 14.74,-96.02 14.74,-147.4 0,-454.39 -335.23,-757.6 -800.16,-757.6zm-398.41 610.63c52.65,-168.04 196.66,-273.74 397.96,-273.74 201.72,0 345.76,105.7 397.96,273.74l-795.92 0 0 0zm4933.16 -610.63c-464.93,0 -800.15,303.21 -800.15,758.03 0,454.82 377.32,758.03 842.27,758.03 280.88,0 528.53,-111.18 681.8,-298.58l-322.16 -186.13c-85.06,93.08 -214.37,147.4 -359.65,147.4 -201.72,0 -373.12,-105.28 -436.72,-273.74l1180.02 -0.01c9.26,-47.18 14.74,-96.02 14.74,-147.4 0,-454.39 -335.22,-757.6 -800.15,-757.6l0 0zm-397.99 610.63c52.65,-168.04 196.66,-273.74 397.96,-273.74 201.72,0 345.76,105.7 397.96,273.74l-795.92 0zm-1643.67 147.4c0,252.68 165.07,421.14 421.14,421.14 173.51,0 303.64,-78.74 370.6,-207.2l323.43 186.56c-133.93,223.2 -384.92,357.53 -694.03,357.53 -465.35,0 -800.15,-303.21 -800.15,-758.03 0,-454.82 335.23,-758.03 800.15,-758.03 309.11,0 559.67,134.33 694.03,357.53l-323.43 186.56c-66.97,-128.46 -197.09,-207.2 -370.6,-207.2 -255.64,0.03 -421.14,168.46 -421.14,421.14zm3473.5 -1221.27l0 1937.2 -379.02 0 0 -1937.2 379.02 0zm-10350.14 -210.58l1556.09 2695.26 -3112.19 0 1556.1 -2695.26zm3890.4 210.58l-1166.94 2021.44 -1166.93 -2021.44 437.55 0 729.39 1263.39 729.4 -1263.39 437.53 0zm2480.89 505.36l0 408.07c-42.12,-12.22 -86.76,-20.64 -134.75,-20.64 -244.69,0 -421.14,168.46 -421.14,421.14l0 623.28 -379.02 -0.01 0 -1431.85 379.02 0.01 0 387.43c0,-213.92 248.89,-387.43 555.89,-387.43z"/>
  </g>
 </g>
</svg>
