<?xml version="1.0" encoding="UTF-8"?>
<!DOCTYPE svg PUBLIC "-//W3C//DTD SVG 1.1//EN" "http://www.w3.org/Graphics/SVG/1.1/DTD/svg11.dtd">
<!-- Creator: CorelDRAW -->
<svg xmlns="http://www.w3.org/2000/svg" xml:space="preserve" width="100%" height="100%" version="1.1" style="shape-rendering:geometricPrecision; text-rendering:geometricPrecision; image-rendering:optimizeQuality; fill-rule:evenodd; clip-rule:evenodd"
viewBox="0 0 4451.13 4472.48"
 xmlns:xlink="http://www.w3.org/1999/xlink"
 xmlns:xodm="http://www.corel.com/coreldraw/odm/2003">
 <defs>
  <style type="text/css">
   <![CDATA[
    .fil0 {fill:#FF0073}
   ]]>
  </style>
 </defs>
 <g id="Слой_x0020_1">
  <metadata id="CorelCorpID_0Corel-Layer"/>
  <path class="fil0" d="M-0 2078.51c0,617.69 45.4,959.8 437.66,1502.62 36.35,50.3 69.33,88.15 112.3,134.64 240.1,259.76 416.86,409.98 769.63,570.93 800.4,365.19 1822.67,177.41 2428.84,-435.32 1458.5,-1474.27 494.45,-3739.23 -1495.89,-3849.4 -504.64,-27.93 -1184.13,244.42 -1538.48,603.37 -385.71,390.72 -714.06,857.22 -714.06,1473.16zm1693.33 599.72c-108.27,-124.05 -141.11,-291.11 -141.11,-423.33 0,-161.86 59.99,-363.66 155.61,-433.72 -85.1,213.31 234.18,288.41 224.64,440.3 -11.69,185.96 -315.9,223.83 -239.14,416.75zm511.76 -742.09c-147.99,0.16 -165.77,-283.35 -370.65,-245.69 354.37,-243.97 664.48,-81.34 776.12,0 -166.78,-38.4 -245.84,245.52 -405.47,245.69zm405.47 812.65c-146.04,199.32 -645.55,219.96 -791.59,20.64 185.67,-0.97 138.57,-212.66 409.33,-212.66 127.37,0 159.97,140.23 382.26,192.02zm105.83 -105.84c131.72,-233.31 -314.8,-234.66 -318.86,-412.57 -3.23,-141.51 398.83,-216.94 318.86,-398.81 175.91,128.88 216.98,652.41 0,811.38zm-2328.33 -70.55l-35.28 0c0,-220.8 -111.12,-524.01 124.96,-1074.48 114.31,-266.53 385.69,-644.33 617.28,-793.83l309.84 -184.06c221.1,-88.89 463.01,-205.41 782.36,-205.41 -144.86,100.66 -286.9,60.61 -670.48,317.3 -404.99,271.01 -747.12,645.98 -932.57,1113.53 -88.56,223.27 -196.11,536.77 -196.11,826.95z"/>
 </g>
</svg>
