<?xml version="1.0" encoding="UTF-8"?>
<!DOCTYPE svg PUBLIC "-//W3C//DTD SVG 1.1//EN" "http://www.w3.org/Graphics/SVG/1.1/DTD/svg11.dtd">
<!-- Creator: CorelDRAW -->
<svg xmlns="http://www.w3.org/2000/svg" xml:space="preserve" width="100%" height="100%" version="1.1" style="shape-rendering:geometricPrecision; text-rendering:geometricPrecision; image-rendering:optimizeQuality; fill-rule:evenodd; clip-rule:evenodd"
viewBox="0 0 3627.38 3775.12"
 xmlns:xlink="http://www.w3.org/1999/xlink"
 xmlns:xodm="http://www.corel.com/coreldraw/odm/2003">
 <defs>
  <style type="text/css">
   <![CDATA[
    .fil0 {fill:#8B5CFF}
   ]]>
  </style>
 </defs>
 <g id="Слой_x0020_1">
  <metadata id="CorelCorpID_0Corel-Layer"/>
  <path class="fil0" d="M3627.25 2097.42c9.3,-588.72 -486.62,-1340.48 -990.36,-1624.92 -333.14,-188.12 -627.31,-189.6 -941.01,-223.16 -185.46,-19.84 -138.71,-48.3 -138.71,-249.34 -143.07,38.2 -185.34,130.51 -246.95,246.94 -240.09,-160.77 -501.78,-117.36 -529.16,211.67l-352.78 0c42.71,70.5 34.82,33.05 104.41,148.42 100.05,165.86 -27.67,120.74 -253.23,478.87 -279.68,444.04 -352.34,945.09 -204.84,1454.98 258.92,894.83 1062.94,1296.8 1840.71,1226.37 864.7,-78.3 1697.05,-728.06 1711.92,-1669.83zm-1364.53 -1462.42c-597.08,0 -1100.58,55.39 -1579.29,502.1 -255.67,238.57 -221.48,303.48 -325.71,379.84 79.8,-342.52 385.73,-635.6 676.82,-804.85 108.09,-62.84 410.04,-170.92 558.84,-182.02 193.08,-14.4 514.23,-29.89 669.34,104.93z"/>
 </g>
</svg>
