<?xml version="1.0" encoding="UTF-8"?>
<!DOCTYPE svg PUBLIC "-//W3C//DTD SVG 1.1//EN" "http://www.w3.org/Graphics/SVG/1.1/DTD/svg11.dtd">
<!-- Creator: CorelDRAW -->
<svg xmlns="http://www.w3.org/2000/svg" xml:space="preserve" width="100%" height="100%" version="1.1" style="shape-rendering:geometricPrecision; text-rendering:geometricPrecision; image-rendering:optimizeQuality; fill-rule:evenodd; clip-rule:evenodd"
viewBox="0 0 11694.57 11405.89"
 xmlns:xlink="http://www.w3.org/1999/xlink"
 xmlns:xodm="http://www.corel.com/coreldraw/odm/2003">
 <defs>
  <style type="text/css">
   <![CDATA[
    .fil0 {fill:#221E1B}
    .fil1 {fill:#221E1B;fill-rule:nonzero}
   ]]>
  </style>
 </defs>
 <g id="Слой_x0020_1">
  <metadata id="CorelCorpID_0Corel-Layer"/>
  <g id="_105553290301536">
   <path fill="currentColor" d="M5847.29 0c-3228.92,0 -5847.29,2617.79 -5847.29,5847.29 0,2583.46 1675.42,4775.27 3998.75,5548.49 292.18,54.08 399.52,-126.89 399.52,-281.31 0,-139.38 -5.4,-600.08 -7.94,-1088.65 -1626.71,353.75 -1969.98,-689.9 -1969.98,-689.9 -265.99,-675.83 -649.23,-855.58 -649.23,-855.58 -530.57,-362.93 39.98,-355.44 39.98,-355.44 587.14,41.22 896.33,602.64 896.33,602.64 521.49,893.87 1367.9,635.45 1701.59,486.04 52.49,-377.88 203.97,-635.93 371.24,-781.92 -1298.79,-147.8 -2664.12,-649.26 -2664.12,-2889.74 0,-638.36 228.47,-1160.01 602.54,-1569.48 -60.72,-147.32 -260.88,-742.02 56.65,-1547.47 0,0 491.04,-157.06 1608.35,599.47 466.46,-129.59 966.68,-194.55 1463.6,-196.82 496.9,2.28 997.5,67.23 1464.83,196.82 1116.09,-756.52 1606.36,-599.47 1606.36,-599.47 318.29,805.47 118.11,1400.15 57.39,1547.47 374.94,409.5 601.77,931.12 601.77,1569.48 0,2245.88 -1367.9,2740.33 -2669.99,2885.11 209.74,181.48 396.58,537.29 396.58,1082.81 0,782.37 -6.72,1412.05 -6.72,1604.67 0,155.65 105.25,337.95 401.58,280.56 2322.16,-774.15 3995.49,-2965.19 3995.49,-5547.78 0,-3229.5 -2617.97,-5847.29 -5847.28,-5847.29z"/>
   <path class="fil1" d="M2214.69 8395.38c-12.86,29.13 -58.63,37.81 -100.22,17.86 -42.47,-19.1 -66.2,-58.71 -52.49,-87.84 12.57,-29.87 58.34,-38.21 100.7,-18.26 42.46,19.1 66.67,59.11 52.01,88.24l0 0zm-71.96 -53.34z"/>
   <path class="fil1" d="M2451.55 8659.57c-27.89,25.82 -82.47,13.81 -119.43,-27.04 -38.29,-40.75 -45.38,-95.33 -17.12,-121.52 28.76,-25.82 81.6,-13.71 119.91,27.04 38.31,41.24 45.77,95.35 16.64,121.52l0 0zm-55.78 -59.85z"/>
   <path class="fil1" d="M2682.11 8996.3c-35.85,24.95 -94.46,1.61 -130.68,-50.4 -35.85,-52.02 -35.85,-114.41 0.85,-139.38 36.22,-24.95 93.98,-2.46 130.68,49.08 35.74,52.86 35.74,115.27 -0.85,140.7l0 0zm0 0z"/>
   <path class="fil1" d="M2997.94 9321.69c-32.07,35.37 -100.33,25.82 -150.26,-22.41 -51.14,-47.1 -65.35,-114.04 -33.28,-149.41 32.52,-35.37 101.18,-25.43 151.47,22.41 50.78,47.09 66.2,114.4 32.07,149.41l0 0zm0 0z"/>
   <path class="fil1" d="M3433.65 9510.6c-14.18,45.77 -79.9,66.57 -146.1,47.1 -66.2,-20.06 -109.41,-73.66 -96.07,-119.91 13.71,-46.14 79.8,-67.79 146.47,-46.99 66.1,19.97 109.41,73.21 95.7,119.8l0 0zm0 0z"/>
   <path class="fil1" d="M3912.23 9545.6c1.61,48.23 -54.56,88.21 -124.06,89.09 -69.88,1.61 -126.52,-37.44 -127.26,-84.93 0,-48.68 54.93,-88.21 124.8,-89.46 69.51,-1.32 126.52,37.44 126.52,85.3l0 0zm0 0z"/>
   <path class="fil1" d="M4357.5 9469.85c8.31,46.99 -40.01,95.33 -109.03,108.19 -67.89,12.49 -130.68,-16.64 -139.38,-63.26 -8.41,-48.23 40.75,-96.55 108.56,-109.03 69.13,-12.02 131.07,16.27 139.85,64.1l0 0zm0 0z"/>
  </g>
 </g>
</svg>
