<?xml version="1.0" encoding="UTF-8"?>
<!DOCTYPE svg PUBLIC "-//W3C//DTD SVG 1.1//EN" "http://www.w3.org/Graphics/SVG/1.1/DTD/svg11.dtd">
<!-- Creator: CorelDRAW -->
<svg xmlns="http://www.w3.org/2000/svg" xml:space="preserve" width="100%" height="100%" version="1.1" style="shape-rendering:geometricPrecision; text-rendering:geometricPrecision; image-rendering:optimizeQuality; fill-rule:evenodd; clip-rule:evenodd"
viewBox="0 0 8617.49 6838.97"
 xmlns:xlink="http://www.w3.org/1999/xlink"
 xmlns:xodm="http://www.corel.com/coreldraw/odm/2003">
 <defs>
  <style type="text/css">
   <![CDATA[
    .fil2 {fill:#8B5CFF}
    .fil1 {fill:#B50051}
    .fil0 {fill:#FF0073}
   ]]>
  </style>
 </defs>
 <g id="Слой_x0020_1">
  <metadata id="CorelCorpID_0Corel-Layer"/>
  <path class="fil0" d="M3913.4 5135.92c185.67,-0.97 138.57,-212.66 409.33,-212.66 127.37,0 159.97,140.23 382.26,192.02 -146.04,199.32 -645.55,219.96 -791.59,20.64zm-266.75 -514.53c0,-161.86 59.99,-363.66 155.61,-433.72 -85.1,213.31 234.18,288.41 224.64,440.3 -11.69,185.96 -315.9,223.83 -239.14,416.75 -108.27,-124.05 -141.11,-291.11 -141.11,-423.33zm1164.17 -423.33c175.91,128.88 216.98,652.41 0,811.38 131.72,-233.31 -314.8,-234.66 -318.86,-412.57 -3.23,-141.51 398.83,-216.94 318.86,-398.81zm-881.95 -141.12c354.37,-243.97 664.48,-81.34 776.12,0 -166.78,-38.4 -245.84,245.52 -405.47,245.69 -147.99,0.16 -165.77,-283.35 -370.65,-245.69zm-1446.38 881.95l-35.28 0c0,-220.8 -111.12,-524.01 124.96,-1074.48 114.31,-266.53 385.69,-644.33 617.28,-793.83l309.84 -184.06c221.1,-88.89 463.01,-205.41 782.36,-205.41 -144.86,100.66 -286.9,60.61 -670.48,317.3 -404.99,271.01 -747.12,645.98 -932.57,1113.53 -88.56,223.27 -196.11,536.77 -196.11,826.95zm-388.06 -493.89c0,617.69 45.4,959.8 437.66,1502.62 36.35,50.3 69.33,88.15 112.3,134.64 240.1,259.76 416.86,409.98 769.63,570.93 800.4,365.19 1822.67,177.41 2428.84,-435.32 1458.5,-1474.27 494.45,-3739.23 -1495.89,-3849.4 -504.64,-27.93 -1184.13,244.42 -1538.48,603.37 -385.71,390.72 -714.06,857.22 -714.06,1473.16z"/>
  <path class="fil0" d="M2835.26 1516.94l-19.4 75.85 19.4 -75.85zm0 0c79.8,-342.52 385.73,-635.6 676.82,-804.85 108.09,-62.84 410.04,-170.92 558.84,-182.02 193.08,-14.4 514.23,-29.89 669.34,104.93 -597.08,0 -1100.58,55.39 -1579.29,502.1 -255.67,238.57 -221.48,303.48 -325.71,379.84zm952.5 -1270c-240.09,-160.77 -501.78,-117.36 -529.16,211.67l-352.78 0c42.71,70.5 34.82,33.05 104.41,148.42 100.05,165.86 -27.67,120.74 -253.23,478.87 -279.68,444.04 -352.34,945.09 -204.84,1454.98 44.14,152.55 107.74,204.88 141.99,351.9 269.14,-180.22 186.51,-162.39 548.6,-368.63 607,-345.73 1536.56,-317.44 2155.49,2.22 167.69,86.59 327.66,198.25 481.91,328.53 147.27,-261.54 220.79,-513.87 224.64,-757.48 9.31,-588.74 -486.62,-1340.48 -990.36,-1624.92 -333.14,-188.12 -627.31,-189.6 -941.01,-223.16 -185.46,-19.84 -138.71,-48.3 -138.71,-249.34 -143.07,38.2 -185.34,130.51 -246.95,246.94z"/>
  <path class="fil1" d="M789.15 3210.28c-126.73,-248.59 66.92,-706.75 190.09,-868.25 137.99,-180.96 473.85,-465.88 762.41,-472.31 -157.54,136.94 -952.5,492.48 -952.5,1340.56zm317.5 -1340.56c433.54,-208.02 559.64,-289.82 1097.14,-251.19 313.78,22.56 172.86,21.08 172.86,215.91 0,432.86 5.15,767.8 246.95,1128.89 -178.99,267.29 -138.46,119.24 -360.64,521.31 -293.95,531.96 -253.41,1066.19 -344.92,1066.19 -360.28,0 -786.43,-208.57 -996.51,-449.88 -145.37,-166.98 -201.69,-231.97 -279.24,-426.31 -345.29,-865.35 175.41,-1089.3 -276.47,-1099.36 72.82,-108.75 100.04,-142.17 246.94,-176.39 -52.17,-108.73 -53.44,-199.77 -35.27,-282.22 53.18,-65.33 118.76,-105.97 314.68,-105.97 -11.42,-120.82 12.64,-224.25 35.27,-282.22 127.02,45.98 134.69,76.67 179.21,141.24z"/>
  <path class="fil2" d="M7642.82 5757.02c-339.27,-112.83 -754.24,-711.91 -997.92,-834.69 19.02,229.74 -192.83,590.84 -260.61,794.67 134.5,142.76 506.07,370.81 689.59,450.81 265.29,115.64 542.28,220.84 847.48,272.5 213.21,36.1 441.99,54.69 696.13,12.21 -142.11,-850.2 -147.97,-1552.14 -771.46,-2368.4 -238.58,377.85 -631.94,549.27 -1137.45,577.2 78.85,310.59 888.7,995.47 934.24,1095.7z"/>
  <path class="fil2" d="M1812.21 776.11l-141.11 -105.83zm141.11 105.83c247.91,66.2 472.89,467.56 670.28,599.72l211.66 -423.33c0,-263.01 -843.57,-705.56 -1552.22,-705.56 0,771.78 337.83,1117.17 388.06,1305.28 134.78,-31.4 258.93,-67.72 422.89,-72.64 215.49,-6.46 276.88,37.36 459.05,37.36 -55.17,-206.62 -478.7,-560.1 -599.72,-740.83z"/>
  <path class="fil1" d="M7811.11 3210.28c126.73,-248.59 -66.92,-706.75 -190.09,-868.25 -137.99,-180.96 -473.85,-465.88 -762.41,-472.31 157.54,136.94 952.5,492.48 952.5,1340.56zm-317.5 -1340.56c-433.54,-208.02 -559.64,-289.82 -1097.14,-251.19 -313.78,22.56 -172.86,21.08 -172.86,215.91 0,432.86 -5.15,767.8 -246.95,1128.89 178.99,267.29 138.46,119.24 360.64,521.31 293.95,531.96 253.41,1066.19 344.92,1066.19 360.28,0 786.43,-208.57 996.51,-449.88 145.37,-166.98 201.69,-231.97 279.24,-426.31 345.29,-865.35 -175.41,-1089.3 276.47,-1099.36 -72.82,-108.75 -100.04,-142.17 -246.94,-176.39 52.17,-108.73 53.44,-199.77 35.27,-282.22 -53.18,-65.33 -118.76,-105.97 -314.68,-105.97 11.42,-120.82 -12.64,-224.25 -35.27,-282.22 -127.02,45.98 -134.69,76.67 -179.21,141.24z"/>
  <path class="fil2" d="M6709.15 776.11l141.11 -105.83zm-141.11 105.83c-247.91,66.2 -472.89,467.56 -670.28,599.72l-211.66 -423.33c0,-263.01 843.57,-705.56 1552.22,-705.56 0,771.78 -337.83,1117.17 -388.06,1305.28 -134.78,-31.4 -258.93,-67.72 -422.89,-72.64 -215.49,-6.46 -276.88,37.36 -459.05,37.36 55.17,-206.62 478.7,-560.1 599.72,-740.83z"/>
  <path class="fil2" d="M974.67 5757.02c339.27,-112.83 754.24,-711.91 997.92,-834.69 -19.02,229.74 192.83,590.84 260.61,794.67 -134.5,142.76 -506.07,370.81 -689.59,450.81 -265.29,115.64 -542.28,220.84 -847.48,272.5 -213.21,36.1 -441.99,54.69 -696.13,12.21 142.11,-850.2 147.97,-1552.14 771.46,-2368.4 238.58,377.85 631.94,549.27 1137.45,577.2 -78.85,310.59 -888.7,995.47 -934.24,1095.7z"/>
 </g>
</svg>
